<svg xmlns="http://www.w3.org/2000/svg" viewBox="0 0 6.62927 20"><path d="M2.39779.13856a4.83357,4.83357,0,0,1,1.23333,1.1393s2.47063,3.2471,2.50249,3.289c.26866.35309.72077.697.34995,1.17342-.17471.22449-.43407.38343-.62336.60292q-.259.30042-.50528.61154a8.02921,8.02921,0,0,0-1.0301,1.5629A3.69438,3.69438,0,0,0,4.15,9.13891a4.37283,4.37283,0,0,0-.1249,1.40228,3.60293,3.60293,0,0,0,.27744,1.22936A5.48621,5.48621,0,0,0,5.01212,12.785c.22517.29919.45467.59587.681.89443l.501.66079c.12252.16161.40429.41183.43246.61794a.42948.42948,0,0,1-.01043.14765.86071.86071,0,0,1-.653.66331.13611.13611,0,0,1-.06616.00252.14725.14725,0,0,1-.05437-.03532,3.34176,3.34176,0,0,0-2.59241-.92248c-.34145.057-.53484.37224-.68161.65755a2.48651,2.48651,0,0,0,.00463,2.03325A15.83371,15.83371,0,0,0,3.6841,19.51378a.18693.18693,0,0,1,.02775.06733c.03.23127-.45366.38294-.61034.41611-.15562.03295-.37929-.23609-.49086-.33079q-.26354-.22366-.51507-.461A11.63384,11.63384,0,0,1,1.1659,18.221,4.16223,4.16223,0,0,1,.01877,16.02486a4.32861,4.32861,0,0,1,.02677-1.04177,2.49091,2.49091,0,0,1,.76227-1.4565,2.43064,2.43064,0,0,1,.94621-.51311,2.631,2.631,0,0,1,.53428-.09515,2.21482,2.21482,0,0,1,.72006.07828c.20137.04692.54824.08182.59546-.186a1.22044,1.22044,0,0,0-.28836-.739A24.37278,24.37278,0,0,0,1.88461,9.96651c-.201-.26384-.40776-.52494-.6338-.768A2.22655,2.22655,0,0,0,.584,8.62742,1.314,1.314,0,0,1,.41034,8.546C.21645,8.42186.288,8.07093.33341,7.8816a1.04319,1.04319,0,0,1,.36633-.55412A12.30866,12.30866,0,0,0,2.62466,5.3044c.41732-.56127.9993-1.37949.6536-2.108a10.097,10.097,0,0,0-1.374-2.17271C1.79307.89289,1.67615.7669,1.55265.64765c-.13559-.13093-.006-.38611.11-.50607a.536.536,0,0,1,.68968-.0322Z"/></svg>