<svg xmlns="http://www.w3.org/2000/svg" viewBox="0 0 132.8386 83.4076"><polygon points="132.772 0.187 132.772 83.345 132.757 83.361 0.113 83.361 0.113 0.187 132.772 0.187" style="fill:#2e4593"/><polygon points="132.772 74.685 132.772 83.345 132.757 83.361 118.951 83.361 78.236 57.832 74.161 55.278 69.352 52.256 67.738 51.244 62.848 48.183 61.023 47.03 59.491 46.081 56.411 44.157 55.418 43.526 53.917 42.592 39.459 33.511 32.956 29.438 0.113 8.855 0.113 0.187 0.226 0.024 0.487 0.187 13.919 0.187 55.418 26.198 59.491 28.76 60.583 29.438 67.088 33.511 67.738 33.924 70.232 35.489 74.161 37.95 74.829 38.378 78.236 40.512 81.562 42.592 90.49 48.183 96.995 52.256 132.772 74.685" style="fill:#fcf5ff"/><polygon points="132.786 83.104 132.813 83.408 123.939 83.361 78.236 54.709 74.34 52.256 74.161 52.147 70.232 49.687 67.853 48.183 63.517 45.466 59.491 42.958 58.921 42.592 56.411 41.011 55.418 40.396 44.447 33.511 37.96 29.438 0.113 5.709 0.113 0 0.226 0.024 0.487 0.187 47.153 29.438 53.64 33.511 55.418 34.625 59.491 37.187 61.023 38.145 63.517 39.71 68.114 42.592 74.161 46.377 74.829 46.805 77.043 48.183 78.236 48.939 83.534 52.256 132.786 83.104" style="fill:#d63932"/><polygon points="132.772 1.83 132.772 10.482 102.523 29.438 96.033 33.511 81.562 42.592 78.236 44.663 74.829 46.805 74.161 47.226 72.627 48.183 70.232 49.687 67.738 51.244 66.124 52.256 59.491 56.415 55.418 58.977 16.51 83.361 0.113 83.361 0.113 76.321 38.497 52.256 44.984 48.183 53.917 42.592 55.418 41.649 56.411 41.011 59.491 39.087 61.023 38.145 67.738 33.924 68.39 33.511 74.161 29.898 74.895 29.438 78.236 27.343 121.56 0.187 131.729 0.187 132.772 1.83" style="fill:#fcf5ff"/><polygon points="132.43 2.258 89.075 29.438 82.572 33.511 78.236 36.237 74.829 38.378 74.161 38.799 68.114 42.592 63.517 45.466 61.023 47.03 59.491 47.989 59.181 48.183 55.418 50.551 52.679 52.256 3.098 83.361 0.113 83.361 0.113 79.467 43.485 52.256 49.988 48.183 55.418 44.78 56.411 44.157 58.921 42.592 59.491 42.218 63.517 39.71 70.232 35.489 73.379 33.511 74.161 33.028 78.236 30.466 79.882 29.438 126.529 0.187 131.143 0.187 132.772 0.187 132.786 2.009 132.43 2.258" style="fill:#d63932"/><rect y="29.4379" width="132.8386" height="22.8184" style="fill:#fff"/><rect y="33.511" width="132.8386" height="14.6723" style="fill:#d63932"/><rect x="59.4911" y="0.187" width="14.6703" height="83.1739" style="fill:#cd002a"/><polygon points="74.126 52.256 78.203 52.256 78.203 83.361 55.383 83.361 55.383 52.256 59.458 52.256 59.458 29.438 55.383 29.438 55.383 0.187 78.203 0.187 78.203 29.438 74.126 29.438 74.126 52.256" style="fill:#fff"/><rect x="59.3799" y="0.187" width="14.8242" height="83.1739" style="fill:#d63932"/></svg>