<svg xmlns="http://www.w3.org/2000/svg" viewBox="0 0 16.06227 10.06958"><circle cx="8.03089" cy="8.4895" r="1.58008"/><path d="M8.03077,0a6.9636,6.9636,0,0,0-.74115.03958A7.08975,7.08975,0,0,0,6.56785.1548q-.35634.07574-.69967.18548-.34552.11-.67445.25044-.3329.14161-.64654.3101-.31827.17037-.61556.36432-.30192.19638-.58184.41334-.28387.21945-.54518.4569-.26433.2398-.50553.49521-.24338.25726-.46314.52816-.22084.27186-.41773.55577-.197.28377-.36949.578-.17177.293-.31836.595-.1452.29948-.26427.60659-.11733.30328-.20733.61286-.08821.30448-.14752.6138a6.04214,6.04214,0,0,0-.08473.60936c-.008.09217-.019.18421-.02236.27658-.0029.07944-.02094.18051.05031.24314a.701.701,0,0,0,.07975.06069A.523.523,0,0,0,.37937,7.999a.424.424,0,0,0,.198-.03451.53234.53234,0,0,0,.106-.06219.69219.69219,0,0,0,.054-.04489c.11269-.10314.06475-.25561.07466-.37956.00817-.10255.01945-.20492.03766-.3066a4.39057,4.39057,0,0,1,.1527-.59785,5.33794,5.33794,0,0,1,.23993-.59953,6.39082,6.39082,0,0,1,.3196-.59362q.1801-.29673.39148-.58028.21357-.287.45567-.5594.24282-.27352.512-.53106.26807-.25641.56082-.49515.28915-.23569.60179-.45183.30639-.21138.635-.40087c.2133-.12252.43352-.23727.6606-.34248.21981-.10184.446-.19475.67843-.27658a6.80623,6.80623,0,0,1,.68851-.20319,5.92653,5.92653,0,0,1,.69088-.12228,5.21232,5.21232,0,0,1,.59362-.03465,5.521,5.521,0,0,1,1.17562.13209,6.9684,6.9684,0,0,1,1.17223.37139,8.40226,8.40226,0,0,1,1.13038.57334A9.40316,9.40316,0,0,1,13.49067,4.0624a8.3102,8.3102,0,0,1,.77441.955A6.64986,6.64986,0,0,1,14.844,6.025a4.88793,4.88793,0,0,1,.345,1.02277,3.54118,3.54118,0,0,1,.05715.37866A2.60293,2.60293,0,0,1,15.26,7.7132c-.00091.09554.05176.13279.14387.18274a.59772.59772,0,0,0,.23193.0728.48955.48955,0,0,0,.238-.04125.4799.4799,0,0,0,.15254-.08674c.05835-.061.02887-.1513.02576-.22146-.00577-.13292-.01469-.26581-.02829-.39837q-.01362-.13251-.033-.26458a1.86164,1.86164,0,0,1-.04363-.25611,6.99257,6.99257,0,0,0-.29148-1.04731,8.0838,8.0838,0,0,0-.4595-1.03308,8.89606,8.89606,0,0,0-.61323-.99232A9.27911,9.27911,0,0,0,12.953,1.87123a8.77929,8.77929,0,0,0-.98795-.71093A8.16922,8.16922,0,0,0,10.881.59622,7.55628,7.55628,0,0,0,9.7152.20549,7.11748,7.11748,0,0,0,8.482.01464Q8.25686,0,8.03077,0Z"/></svg>