<svg xmlns="http://www.w3.org/2000/svg" viewBox="0 0 22.67409 60"><path d="M19.83044,31.102a8.51655,8.51655,0,0,0-4.44292-1.32313c-.73195-.0356-.82209.11437-1.18309-.41709a7.83831,7.83831,0,0,1-.46758-2.26072q-.46749-2.25306-.935-4.50616a15.53419,15.53419,0,0,0,6.77724-9.144A15.53407,15.53407,0,0,0,18.20252,2.15278c-.5948-1.08689-1.54571-2.2185-2.78278-2.1498a3.28591,3.28591,0,0,0-2.23125,1.50757,15.8959,15.8959,0,0,0-3.009,8.16428,30.459,30.459,0,0,0,.62213,8.76211,1.61082,1.61082,0,0,1,.01747.83016,1.58261,1.58261,0,0,1-.59118.67494c-3.4847,2.68975-7.23538,5.40094-9.0781,9.39871a12.65739,12.65739,0,0,0-.92242,7.655,10.049,10.049,0,0,0,4.23947,6.61044,13.06209,13.06209,0,0,0,4.984,1.65968,16.71435,16.71435,0,0,0,6.651-.07525c.24912,1.318.4611,2.64327.62469,3.97457.12909,1.05048.25983,2.12054.30776,3.18479.01535.34019-.01169.67178-.01169,1.0101a4.55356,4.55356,0,0,1-.71379,1.96564,4.91905,4.91905,0,0,1-.57029.73076A7.01335,7.01335,0,0,1,13.42938,57.616a5.48638,5.48638,0,0,1-1.92836.46061,4.78468,4.78468,0,0,1-.99928-.05525l-.08606-.01444a4.23229,4.23229,0,1,0-5.7138-1.751l-.0244-.00754c.05969.115.13067.21462.1955.32268.02623.04106.04792.08462.07553.12469,2.21079,3.49191,7.0589,3.30054,7.0589,3.30054a6.22525,6.22525,0,0,0,1.78391-.24431,7.20544,7.20544,0,0,0,3.37438-1.89941,6.98657,6.98657,0,0,0,1.113-1.50683,5.56526,5.56526,0,0,0,.58431-1.42306,6.56888,6.56888,0,0,0,.04286-2.11593,48.39821,48.39821,0,0,0-.78344-4.87385q-.11472-.57345-.22937-1.147-.205-1.02462-.40983-2.04927l-.02071-.10345s4.05929-1.184,4.905-4.73589C22.36758,39.89723,23.97431,34.31576,19.83044,31.102ZM12.55689,5.77875a3.05746,3.05746,0,0,1,5.48939,1.52637A10.82767,10.82767,0,0,1,15.09459,15.203a26.47084,26.47084,0,0,1-3.14891,3.1882l-.41568-1.973c-.02993-.145-.04979-.51343-.0725-.6598a29.53085,29.53085,0,0,1-.20617-7.0708A6.52015,6.52015,0,0,1,12.55689,5.77875Zm-6.70266,36.33a8.4057,8.4057,0,0,1-3.09306-5.838c-.12469-2.59887,1.23549-5.04576,2.86521-7.074a25.52453,25.52453,0,0,1,5.84348-5.3165q.56842,2.46053,1.13689,4.9211a1.63446,1.63446,0,0,1,.00881,1.04309,1.83288,1.83288,0,0,1-.88052.72044,8.05709,8.05709,0,0,0-4.07189,6.89956,5.53847,5.53847,0,0,0,.70618,3.06127,2.92026,2.92026,0,0,0,2.65781,1.44067c-.45385.04887-1.18038-1.912-1.28116-2.24579a6.167,6.167,0,0,1-.16092-2.89155,4.334,4.334,0,0,1,3.99-3.61621c.74618,3.3624,1.61151,7.35542,2.314,10.85582l.01028.05151A10.77088,10.77088,0,0,1,5.85423,42.10876ZM17.19081,43.488l-.29149-1.53028c-.007-.04264-.00673-.08472-.01553-.1275l-1.82606-8.66746c1.16189.0618,4.41345.62857,5.25621,4.98272C20.31394,38.14546,21.03755,41.42121,17.19081,43.488Z"/></svg>