<svg xmlns="http://www.w3.org/2000/svg" viewBox="0 0 9.71463 30"><path d="M9.51456,0H8.64465a.20061.20061,0,0,0-.2.2V22.57782a5.90786,5.90786,0,0,0-5.10949.44C.76542,24.35761-.61445,26.81739.26547,28.51724c.88992,1.68984,3.68964,1.97979,6.2594.63995a5.45169,5.45169,0,0,0,3.18969-4.59958V.2A.20061.20061,0,0,0,9.51456,0ZM5.8049,27.90732a4.66281,4.66281,0,0,1-2.56975.56989,1.76839,1.76839,0,0,1-1.42986-.7899c-.5199-.9899.45-2.54974,2.10978-3.40965a4.83813,4.83813,0,0,1,2.21982-.58,2.76149,2.76149,0,0,1,1.1399.21995l.01.01a1.59377,1.59377,0,0,1,.75988,1.0699C8.10467,25.98746,7.16476,27.19736,5.8049,27.90732Z"/></svg>