<svg xmlns="http://www.w3.org/2000/svg" viewBox="0 0 27.70547 34.40294"><path d="M27.70547,0V24.52h-.00995a.4892.4892,0,0,1,.00995.12,4.22013,4.22013,0,0,1-.31,1.48,5.95331,5.95331,0,0,1-2.88,3.04,6.44893,6.44893,0,0,1-4.35.71,2.16634,2.16634,0,0,1-.3-.08,2.52114,2.52114,0,0,1-.41-.17,1.73865,1.73865,0,0,1-.33-.18,2.03371,2.03371,0,0,1-.4-.31,2.09987,2.09987,0,0,1-.24-.26995,1.98272,1.98272,0,0,1-.22-.34c-.69-1.32-.02-3.09,1.52-4.45.15-.12.31-.25.48-.38.11-.08.22-.16.34-.24q.345-.225.72-.42a7.13529,7.13529,0,0,1,2.04-.72c.19-.04.37-.06.55-.08a.41882.41882,0,0,1,.16-.01,3.36362,3.36362,0,0,1,.44-.03,4.96046,4.96046,0,0,1,.55.02c.00995.01.00995.01.02,0,.16.02.3.05.45.07.14.04.28.07.41.11h.00995a2.06362,2.06362,0,0,1,.34.15v-.01a.84238.84238,0,0,1,.14.06V4.15l-16.72,4.4V28.96a5.35687,5.35687,0,0,1-2.8,4.38c-.13.08-.26.15-.39.22-2.57,1.34-5.37,1.05-6.26-.64-.87995-1.7.5-4.16,3.07-5.5a5.90857,5.90857,0,0,1,5.11-.44V5.07Z"/></svg>