<svg xmlns="http://www.w3.org/2000/svg" viewBox="0 0 12.02799 20"><path d="M12.004,12.38l-.35-1.31c-.04-.16-.12-.28-.19-.26l-2.44.66V6.9l2.67-.72c.06-.00995.07-.13995.03-.3l-.35-1.31c-.04-.15-.12006-.28-.18006-.26l-2.17.58V.17A.1518.1518,0,0,0,8.884,0h-.68a.16053.16053,0,0,0-.16.17V5.16L3.984,6.25V1.9a.15178.15178,0,0,0-.14-.17h-.68a.159.159,0,0,0-.15.17V6.51l-2.96.8c-.06.02-.07.16-.03.32l.36,1.31c.04.16.11.26.18006.24l2.45-.66v4.57l-2.68.72c-.06.01-.07.16-.03.32l.36,1.31c.04.15.11.26.18.24l2.17-.58v4.73a.159.159,0,0,0,.15.17h.68a.15178.15178,0,0,0,.14-.17v-5l4.06-1.09V18.1a.16052.16052,0,0,0,.16.17h.68a.15178.15178,0,0,0,.14-.17V13.48l2.95-.80005C12.034,12.66,12.044,12.54,12.004,12.38Zm-3.96-.65-4.06,1.1V8.26l4.06-1.1Z"/></svg>