<svg xmlns="http://www.w3.org/2000/svg" viewBox="0 0 475 512"><path d="M328.44,0H183.56C133.57.07,93.06,47.79,93,106.67V405.33c.06,58.88,40.57,106.6,90.56,106.67H328.44c49.99-.07,90.5-47.79,90.56-106.67V106.67C418.94,47.79,378.43.07,328.44,0Zm54.34,405.33c0,35.35-24.33,64-54.34,64H183.56c-30.01,0-54.34-28.65-54.34-64V106.67c0-35.35,24.33-64,54.34-64H328.44c30.01,0,54.34,28.65,54.34,64Z" transform="translate(-18.5)"/><path d="M483.96,402.7c-3.02,3.31-9.78,11.1-9.78,11.1l-.15-.15c-5.15,5.93-14.97,7.18-21.93,2.79-6.96-4.38-8.43-12.75-3.28-18.68l-.22-.15c3.96-5.05,19.57-17.55,10.17-26.66-17.42-19.68-17.42-46.81,0-66.49a11.3144,11.3144,0,0,0,0-15.1c-17.42-19.68-17.42-46.81,0-66.49a11.31433,11.31433,0,0,0,0-15.1c-17.69-19.6-17.69-46.89,0-66.49,9.35-9.19-6.12-21.4-10.19-26.65l.22-.15a12.253,12.253,0,0,1-3.16-8.05c-.01-7.43,7.04-13.48,15.78-13.49a16.57833,16.57833,0,0,1,12.54,5.65l.22-.14c.02.01,6.76,7.79,9.78,11.09,12.71,14.31,12.71,34.07,0,48.37-8.7,9.84-8.7,23.39,0,33.23,12.71,14.3,12.71,34.06,0,48.36-8.7,9.84-8.7,23.39,0,33.23,12.71,14.30005,12.71,34.06,0,48.36005-8.7,9.84-8.7,23.39,0,33.23C496.68,368.62,496.68,388.39,483.96,402.7Z" transform="translate(-18.5)"/><path d="M53.23,207.77a11.31433,11.31433,0,0,0,0,15.1c17.42,19.68,17.42,46.81,0,66.49a11.3144,11.3144,0,0,0,0,15.1c17.42,19.68,17.42,46.81,0,66.49-9.4,9.11,6.21,21.61,10.17,26.66l-.22.15c5.15,5.93,3.68,14.3-3.28,18.68-6.96,4.39-16.78,3.14-21.93-2.79l-.15.15s-6.76-7.79-9.78-11.1c-12.72-14.31-12.72-34.08,0-48.38,8.7-9.84,8.7-23.39,0-33.23-12.71-14.3-12.71-34.06,0-48.36,8.7-9.84,8.7-23.38995,0-33.23-12.71-14.3-12.71-34.06,0-48.36,8.7-9.84,8.7-23.39,0-33.23-12.71-14.3-12.71-34.06,0-48.37,3.02-3.3,9.76-11.08,9.78-11.09l.22.14a16.57833,16.57833,0,0,1,12.54-5.65c8.74.01,15.79,6.06,15.78,13.49a12.253,12.253,0,0,1-3.16,8.05l.22.15c-4.07,5.25-19.54,17.46-10.19,26.65C70.92,160.88,70.92,188.17,53.23,207.77Z" transform="translate(-18.5)"/></svg>