<svg xmlns="http://www.w3.org/2000/svg" viewBox="0 0 100 100"><g style="opacity:0.2"><rect y="67.32256" width="100" height="1.13511"/><rect y="58.37316" width="100" height="1.13511"/><rect y="49.42376" width="100" height="1.13511"/><rect y="40.47436" width="100" height="1.13511"/><rect y="31.52493" width="100" height="1.13511"/><rect x="81.53363" y="49.42375" width="35.79763" height="1.13511" transform="translate(49.44115 149.42375) rotate(-90)"/></g><path d="M5.57377,42.3874h0V66.75145a.19739.19739,0,0,0,.1974.1974h.87115a.19738.19738,0,0,0,.1974-.1974V44.367a5.89131,5.89131,0,0,0,5.1083-.43975c2.57482-1.33882,3.94772-3.79775,3.0667-5.49219s-3.68258-1.9828-6.25732-.644A5.44256,5.44256,0,0,0,5.57377,42.3874Z"/><path d="M26.07493,20.21236h0V44.57641a.19739.19739,0,0,0,.1974.1974h.87115a.19739.19739,0,0,0,.1974-.1974V22.192a5.89135,5.89135,0,0,0,5.1083-.43976c2.57481-1.33882,3.94772-3.79775,3.0667-5.49219s-3.68258-1.9828-6.25732-.644A5.44252,5.44252,0,0,0,26.07493,20.21236Z"/><rect x="23.44121" y="22.58014" width="14.97505" height="1.13511"/><path d="M86.18327,26.41745a5.90861,5.90861,0,0,1-5.11.44v23.29l-19.26-5.37v-24.52h.01a.486.486,0,0,1-.01-.12,4.22145,4.22145,0,0,1,.31-1.48,5.95352,5.95352,0,0,1,2.88-3.04,6.44894,6.44894,0,0,1,4.35-.71,2.16627,2.16627,0,0,1,.3.08,2.51519,2.51519,0,0,1,.41.17,1.74058,1.74058,0,0,1,.33.18,2.0378,2.0378,0,0,1,.4.31,2.09767,2.09767,0,0,1,.24.27,1.98332,1.98332,0,0,1,.22.34c.69,1.32.02,3.09-1.52,4.45-.15.12-.31.25-.48.38-.11.08-.22.16-.34.24q-.345.225-.72.42a7.1353,7.1353,0,0,1-2.04.72c-.19.04-.37.06-.55.08a.42.42,0,0,1-.16.01,3.37316,3.37316,0,0,1-.44.03,4.95928,4.95928,0,0,1-.55-.02c-.01-.00995-.01-.00995-.02,0-.16-.02-.3-.05-.45-.06994-.13995-.04-.28-.07-.41-.11005h-.01a2.06355,2.06355,0,0,1-.34-.15v.01a.83991.83991,0,0,1-.14-.06006v18.44l16.72,4.66v-20.41a5.35683,5.35683,0,0,1,2.8-4.37994c.13-.08.26-.15.39-.22,2.57-1.34,5.37-1.05,6.26.64C90.12327,22.61746,88.75328,25.07742,86.18327,26.41745Z"/><polygon points="74.151 23.713 59.176 23.713 59.176 22.578 59.176 22.578 74.151 22.578 74.151 23.713 74.151 23.713"/><polygon points="92.156 23.712 77.181 23.712 77.181 22.577 77.181 22.576 92.156 22.576 92.156 23.712 92.156 23.712"/><path d="M43.70651,40.71423a4.83352,4.83352,0,0,1,1.23332,1.1393s2.47064,3.2471,2.50249,3.289c.26866.35308.72078.697.35,1.17341-.17472.2245-.43408.38344-.62337.60292q-.259.30042-.50528.61154a8.03,8.03,0,0,0-1.0301,1.56291,3.69427,3.69427,0,0,0-.17483.62125,4.37342,4.37342,0,0,0-.1249,1.40228,3.6034,3.6034,0,0,0,.27744,1.22937,5.48662,5.48662,0,0,0,.70959,1.0144c.22517.2992.45467.59588.681.89444l.501.66079c.12253.16161.40429.41182.43246.61794a.42942.42942,0,0,1-.01043.14764.8607.8607,0,0,1-.653.66332.13607.13607,0,0,1-.06615.00252.14733.14733,0,0,1-.05438-.03532,3.34177,3.34177,0,0,0-2.59241-.92249c-.34144.057-.53484.37225-.68161.65756a2.48656,2.48656,0,0,0,.00463,2.03324,15.83383,15.83383,0,0,0,1.11091,2.00919.18689.18689,0,0,1,.02775.06732c.03.23127-.45366.38294-.61034.41612-.15562.03294-.37928-.23609-.49085-.33079q-.26355-.22367-.51507-.461a11.63063,11.63063,0,0,1-.92968-.98439,4.16231,4.16231,0,0,1-1.14714-2.19618,4.3292,4.3292,0,0,1,.02678-1.04178,2.4908,2.4908,0,0,1,.76227-1.45649,2.43059,2.43059,0,0,1,.94621-.51312A2.63228,2.63228,0,0,1,43.597,53.494a2.21453,2.21453,0,0,1,.72006.07829c.20137.04691.54824.08182.59546-.186a1.22051,1.22051,0,0,0-.28835-.739,24.37288,24.37288,0,0,0-1.43086-2.10513c-.201-.26384-.40776-.52493-.63379-.768a2.22684,2.22684,0,0,0-.66678-.5711,1.31222,1.31222,0,0,1-.1737-.08137c-.19388-.12418-.12234-.47512-.07693-.66444a1.04317,1.04317,0,0,1,.36634-.55412,12.30941,12.30941,0,0,0,1.92491-2.02308c.41732-.56127.99931-1.3795.6536-2.108a10.09762,10.09762,0,0,0-1.374-2.17272c-.1112-.13081-.22811-.2568-.35162-.376-.13559-.13092-.006-.3861.11-.50607a.536.536,0,0,1,.68967-.03219Z"/></svg>