<svg xmlns="http://www.w3.org/2000/svg" viewBox="0 0 100 100"><g style="opacity:0.2"><rect y="67.33126" width="100" height="1.13511"/><rect y="58.38186" width="100" height="1.13511"/><rect y="49.43246" width="100" height="1.13511"/><rect y="40.48306" width="100" height="1.13511"/><rect y="31.53363" width="100" height="1.13511"/><rect x="81.53363" y="49.43245" width="35.79763" height="1.13511" transform="translate(49.43245 149.43245) rotate(-90)"/></g><path d="M54.09015,41.61817h-.87a.20062.20062,0,0,0-.2.2v22.38a5.90843,5.90843,0,0,0-5.11.44c-2.57,1.34-3.95,3.8-3.07,5.5.89,1.69,3.69,1.98,6.26.64a5.45222,5.45222,0,0,0,3.19-4.6v-24.36A.20063.20063,0,0,0,54.09015,41.61817Zm-3.71,27.91a4.66312,4.66312,0,0,1-2.57.57,1.76853,1.76853,0,0,1-1.43-.79c-.52-.99.45-2.55,2.11-3.41a4.83846,4.83846,0,0,1,2.22-.58,2.76182,2.76182,0,0,1,1.14.22l.01.01a1.59392,1.59392,0,0,1,.76,1.07C52.68012,67.60816,51.74012,68.81818,50.38013,69.5282Z"/><circle cx="49.43221" cy="25.78376" r="1.58008"/><path d="M49.43208,17.29427a6.96355,6.96355,0,0,0-.74114.03958,7.08931,7.08931,0,0,0-.72177.11522q-.35636.07574-.69967.18548-.34553.11-.67446.25044-.33288.1416-.64654.3101-.31827.17037-.61556.36432-.3019.19638-.58184.41334-.28386.21945-.54517.4569-.26435.23979-.50553.49521-.24338.25725-.46314.52816-.22086.27186-.41773.55577-.197.28377-.36949.578-.17178.293-.31836.595-.1452.29947-.26427.60659-.11733.30327-.20733.61286-.08821.30448-.14753.6138a6.04787,6.04787,0,0,0-.08473.60936c-.008.09217-.019.18421-.02235.27658-.00291.07943-.02095.18051.05031.24314a.70013.70013,0,0,0,.07975.06069.52308.52308,0,0,0,.24515.08847.42405.42405,0,0,0,.198-.03451.53218.53218,0,0,0,.10605-.0622.69581.69581,0,0,0,.054-.04488c.11269-.10315.06474-.25561.07465-.37956.00817-.10255.01946-.20492.03766-.3066a4.39221,4.39221,0,0,1,.15271-.59786,5.337,5.337,0,0,1,.23993-.59952,6.39082,6.39082,0,0,1,.3196-.59362q.18011-.29673.39147-.58028.21357-.287.45568-.55941.24281-.27351.512-.53106.26806-.25641.56081-.49514.28916-.23571.60179-.45183.30639-.21139.635-.40087c.2133-.12252.43353-.23727.6606-.34248.21981-.10184.44606-.19475.67844-.27658a6.80365,6.80365,0,0,1,.68851-.20319,5.92848,5.92848,0,0,1,.69087-.12229,5.21489,5.21489,0,0,1,.59362-.03465,5.52176,5.52176,0,0,1,1.17563.13209,6.96872,6.96872,0,0,1,1.17223.3714,8.40154,8.40154,0,0,1,1.13037.57334A9.40288,9.40288,0,0,1,54.892,21.35667a8.3101,8.3101,0,0,1,.7744.955,6.6472,6.6472,0,0,1,.57894,1.00757,4.887,4.887,0,0,1,.345,1.02277,3.54083,3.54083,0,0,1,.05716.37866,2.60287,2.60287,0,0,1,.01381.28675c-.00092.09554.05176.13279.14387.18275a.59784.59784,0,0,0,.23192.0728.48942.48942,0,0,0,.238-.04126.47974.47974,0,0,0,.15255-.08673c.05835-.061.02886-.1513.02575-.22146-.00576-.13293-.01468-.26582-.02828-.39837q-.01363-.13251-.033-.26458a1.86316,1.86316,0,0,1-.04363-.25611,6.99183,6.99183,0,0,0-.29148-1.04732,8.08422,8.08422,0,0,0-.45949-1.03307,8.89627,8.89627,0,0,0-.61324-.99233,9.279,9.279,0,0,0-1.62989-1.75628,8.77984,8.77984,0,0,0-.988-.71094,8.16973,8.16973,0,0,0-1.084-.56407,7.5545,7.5545,0,0,0-1.16584-.39073,7.11718,7.11718,0,0,0-1.23319-.19085Q49.65819,17.2943,49.43208,17.29427Z"/></svg>