<svg xmlns="http://www.w3.org/2000/svg" viewBox="0 0 100 100"><g style="opacity:0.2"><rect y="67.33126" width="100" height="1.13511"/><rect y="58.38186" width="100" height="1.13511"/><rect y="49.43246" width="100" height="1.13511"/><rect y="40.48306" width="100" height="1.13511"/><rect y="31.53363" width="100" height="1.13511"/><rect x="81.53363" y="49.43245" width="35.79763" height="1.13511" transform="translate(49.43245 149.43245) rotate(-90)"/><rect x="31.53363" y="49.72495" width="35.79763" height="1.13511" transform="translate(-0.86005 99.72495) rotate(-90)"/></g><path d="M74.806,46.28642H73.936a.20061.20061,0,0,0-.2.2V68.86424a5.90786,5.90786,0,0,0-5.10949.44c-2.56976,1.33984-3.94963,3.79962-3.06971,5.49947.88993,1.68983,3.68964,1.97978,6.2594.63995A5.45169,5.45169,0,0,0,75.00594,70.844V46.48642A.20061.20061,0,0,0,74.806,46.28642ZM71.09629,74.19374a4.66276,4.66276,0,0,1-2.56976.56989,1.76834,1.76834,0,0,1-1.42985-.7899c-.51991-.98989.45-2.54974,2.10978-3.40964a4.838,4.838,0,0,1,2.21982-.58,2.76152,2.76152,0,0,1,1.1399.22l.01.01a1.59378,1.59378,0,0,1,.75987,1.0699C73.39605,72.27388,72.45614,73.48379,71.09629,74.19374Z"/><path d="M49.41871,80.53917c-.525,0-1.05-.00642-1.57038-.01914-.51558-.01257-1.02667-.03129-1.52933-.0557q-.75506-.03661-1.4825-.08968-.73211-.05317-1.42907-.12107-.70535-.06847-1.36992-.14993-.67437-.08237-1.30428-.17614-.6397-.09493-1.23284-.19983-.60147-.1061-1.15515-.2209-.56008-.11594-1.07114-.23942-.51567-.12438-.98133-.25535-.46794-.13143-.8851-.2687c-.37083-.1219-.65541-.23047-.7829-.27945a4.46229,4.46229,0,0,1-1.23451-.58091,2.70265,2.70265,0,0,1-.885-1.27535c.03793-.26269.83383.262,2.52985,1.0434.12418.05722.36218.16858.67718.287.25441.09563.53175.18922.82948.28054q.45252.13876.96551.27046.51449.13224,1.08494.25675.568.124,1.18828.23938.61269.114,1.27511.21845.64918.10219,1.3454.19381.67794.08884,1.39972.16558.69862.07384,1.4375.13372.71206.05721,1.45886.09823c.47955.026.96885.04613,1.46386.05912.41645.0109.837.01676,1.2578.01676.84134,0,1.67986-.02342,2.491-.06386.8605-.04291,1.69121-.10482,2.48378-.17956q1.26083-.11894,2.3951-.2772,1.1828-.16287,2.22515-.35677c.70874-.131,1.36817-.27093,1.97374-.41829.60336-.14679,1.15374-.301,1.64085-.46173.31329-.10336.52163-.193,1.22668-.48712,2.08839-.87119,2.48278-1.05782,2.50513-.87786.02532.20379-.4411.75915-.78536,1.05775a3.123,3.123,0,0,1-.9736.49946c-.38165.16438-.81577.32467-1.29936.47976q-.72354.23206-1.59445.44722-.85853.21153-1.85905.40189-.97848.18518-2.09334.34371-1.08564.15314-2.29694.27272c-.78888.07693-1.61563.141-2.47024.1889-.85.04763-1.72689.07912-2.613.09227Q49.89778,80.53915,49.41871,80.53917Z"/><path d="M33.3735,46.28642h-.86991a.20061.20061,0,0,0-.2.2V68.86424a5.90786,5.90786,0,0,0-5.10949.44c-2.56976,1.33984-3.94963,3.79962-3.06971,5.49947.88993,1.68983,3.68964,1.97978,6.2594.63995A5.45169,5.45169,0,0,0,33.57349,70.844V46.48642A.20061.20061,0,0,0,33.3735,46.28642ZM29.66384,74.19374a4.66276,4.66276,0,0,1-2.56976.56989,1.76834,1.76834,0,0,1-1.42985-.7899c-.51991-.98989.45-2.54974,2.10978-3.40964a4.838,4.838,0,0,1,2.21982-.58,2.76152,2.76152,0,0,1,1.1399.22l.01.01a1.59378,1.59378,0,0,1,.75987,1.0699C31.9636,72.27388,31.02369,73.48379,29.66384,74.19374Z"/><circle cx="70.14846" cy="25.78393" r="1.58008"/><path d="M70.14833,17.29444a6.96355,6.96355,0,0,0-.74114.03958,7.08931,7.08931,0,0,0-.72177.11522q-.35635.07573-.69967.18548-.34553.11-.67446.25044-.33288.1416-.64654.3101-.31827.17037-.61556.36432-.3019.19638-.58184.41334-.28386.21945-.54517.4569-.26435.23979-.50553.49521-.24338.25725-.46314.52816-.22086.27186-.41773.55577-.197.28377-.36949.578-.17178.293-.31836.595-.1452.29947-.26427.60659-.11733.30327-.20733.61286-.08821.30448-.14753.6138a6.04787,6.04787,0,0,0-.08473.60936c-.008.09217-.019.18421-.02235.27658-.00291.07944-.021.18051.05031.24314a.70013.70013,0,0,0,.07975.06069.52308.52308,0,0,0,.24515.08847.42405.42405,0,0,0,.198-.03451.53218.53218,0,0,0,.106-.0622.69581.69581,0,0,0,.054-.04488c.11269-.10315.06474-.25561.07465-.37956.00817-.10255.01946-.20492.03766-.3066a4.39221,4.39221,0,0,1,.15271-.59786,5.337,5.337,0,0,1,.23993-.59952,6.39082,6.39082,0,0,1,.3196-.59362q.1801-.29673.39147-.58028.21357-.287.45568-.55941.24281-.27351.512-.53106.26806-.25641.56081-.49514.28915-.23571.60179-.45183.30639-.2114.635-.40087c.2133-.12252.43353-.23727.6606-.34248.21981-.10184.44606-.19475.67844-.27658a6.80623,6.80623,0,0,1,.68851-.20319,5.92848,5.92848,0,0,1,.69087-.12229,5.21489,5.21489,0,0,1,.59362-.03465A5.52176,5.52176,0,0,1,71.324,18.809a6.96872,6.96872,0,0,1,1.17223.3714,8.40154,8.40154,0,0,1,1.13037.57334,9.40288,9.40288,0,0,1,1.98168,1.60312,8.3101,8.3101,0,0,1,.7744.955,6.6472,6.6472,0,0,1,.57894,1.00757,4.887,4.887,0,0,1,.345,1.02277,3.54083,3.54083,0,0,1,.05716.37866,2.60287,2.60287,0,0,1,.01381.28675c-.00092.09554.05176.13279.14387.18275a.59784.59784,0,0,0,.23192.0728.48942.48942,0,0,0,.238-.04126.47974.47974,0,0,0,.15255-.08673c.05835-.061.02886-.1513.02575-.22146-.00576-.13293-.01468-.26582-.02828-.39837q-.01364-.13251-.033-.26458a1.86316,1.86316,0,0,1-.04363-.25611,6.99183,6.99183,0,0,0-.29148-1.04732,8.08422,8.08422,0,0,0-.45949-1.03307,8.89627,8.89627,0,0,0-.61324-.99233,9.279,9.279,0,0,0-1.62989-1.75628,8.77984,8.77984,0,0,0-.988-.71094,8.16973,8.16973,0,0,0-1.08405-.56407,7.5545,7.5545,0,0,0-1.16584-.39073,7.11718,7.11718,0,0,0-1.23319-.19085Q70.37443,17.29447,70.14833,17.29444Z"/></svg>