<svg xmlns="http://www.w3.org/2000/svg" viewBox="0 0 100 100"><g style="opacity:0.2"><rect y="67.33126" width="100" height="1.13511"/><rect y="58.38186" width="100" height="1.13511"/><rect y="49.43246" width="100" height="1.13511"/><rect y="40.48306" width="100" height="1.13511"/><rect y="31.53363" width="100" height="1.13511"/><rect x="81.53363" y="49.43245" width="35.79763" height="1.13511" transform="translate(49.43245 149.43245) rotate(-90)"/></g><path d="M45.53518,40.63856a4.83353,4.83353,0,0,1,1.23332,1.1393s2.47064,3.2471,2.50249,3.289c.26867.35309.72078.697.35,1.17342-.17471.22449-.43408.38343-.62336.60292q-.259.30042-.50528.61154a8.02971,8.02971,0,0,0-1.03011,1.5629,3.69528,3.69528,0,0,0-.17482.62126,4.37283,4.37283,0,0,0-.1249,1.40228,3.60315,3.60315,0,0,0,.27743,1.22936A5.48669,5.48669,0,0,0,48.1495,53.285c.22517.29919.45468.59587.681.89443l.501.66079c.12253.16161.4043.41183.43246.61794a.42948.42948,0,0,1-.01043.14765.86069.86069,0,0,1-.653.66331.13612.13612,0,0,1-.06616.00252.14728.14728,0,0,1-.05438-.03532,3.34175,3.34175,0,0,0-2.5924-.92248c-.34145.057-.53484.37224-.68162.65755a2.48658,2.48658,0,0,0,.00463,2.03325,15.83371,15.83371,0,0,0,1.11091,2.00918.18676.18676,0,0,1,.02775.06733c.03.23127-.45365.38294-.61033.41611-.15563.03295-.37929-.23609-.49086-.33079q-.26355-.22367-.51507-.461a11.63063,11.63063,0,0,1-.92968-.98439,4.16216,4.16216,0,0,1-1.14713-2.19618,4.32861,4.32861,0,0,1,.02677-1.04177,2.4908,2.4908,0,0,1,.76227-1.4565,2.43064,2.43064,0,0,1,.94621-.51311,2.631,2.631,0,0,1,.53427-.09515,2.21476,2.21476,0,0,1,.72006.07828c.20137.04692.54824.08182.59546-.186a1.22048,1.22048,0,0,0-.28835-.739A24.37288,24.37288,0,0,0,45.022,50.46651c-.201-.26384-.40775-.52494-.63379-.768a2.22655,2.22655,0,0,0-.66678-.5711,1.31409,1.31409,0,0,1-.1737-.08137c-.19388-.12419-.12234-.47512-.07693-.66445a1.04327,1.04327,0,0,1,.36634-.55412,12.30907,12.30907,0,0,0,1.92492-2.02308c.41732-.56127.9993-1.37949.6536-2.108a10.09773,10.09773,0,0,0-1.374-2.17271c-.1112-.13081-.22811-.2568-.35162-.376-.13559-.13093-.006-.38611.11-.50607a.536.536,0,0,1,.68967-.0322Z"/><path d="M87.53328,44.31a5.90864,5.90864,0,0,1-5.11.44V68.04l-19.26-5.37V38.15h.01a.486.486,0,0,1-.01-.12,4.22124,4.22124,0,0,1,.31-1.48,5.95346,5.95346,0,0,1,2.88-3.04,6.449,6.449,0,0,1,4.35-.71,2.16848,2.16848,0,0,1,.3.08,2.51636,2.51636,0,0,1,.41.17,1.741,1.741,0,0,1,.33.18,2.038,2.038,0,0,1,.4.31,2.09692,2.09692,0,0,1,.24.27,1.98272,1.98272,0,0,1,.22.34c.69,1.32.02,3.09-1.52,4.45-.15.12-.31.25-.48.38-.11.08-.22.16-.34.24q-.345.225-.72.42a7.13508,7.13508,0,0,1-2.04.72c-.19.04-.37.06-.55.08a.42.42,0,0,1-.16.01,3.373,3.373,0,0,1-.44.03,4.95937,4.95937,0,0,1-.55-.02c-.01-.01-.01-.01-.02,0-.16-.02-.3-.05-.45-.07-.13995-.04-.28-.07-.41-.11h-.01a2.06275,2.06275,0,0,1-.34-.15v.01a.84021.84021,0,0,1-.14-.06V58.52l16.72,4.66V42.77a5.35684,5.35684,0,0,1,2.8-4.38c.13-.08.26-.15.39-.22,2.57-1.34,5.37-1.05,6.26.64C91.47329,40.51,90.10329,42.97,87.53328,44.31Z"/><polygon points="19.599 49.369 19.599 46.091 12.181 46.091 12.181 49.369 8 49.369 8 50.568 23.78 50.568 23.78 49.369 19.599 49.369"/></svg>