<svg xmlns="http://www.w3.org/2000/svg" viewBox="0 0 100 100"><g style="opacity:0.2"><rect x="-0.00271" y="67.33126" width="100" height="1.13511"/><rect x="-0.00271" y="58.38186" width="100" height="1.13511"/><rect x="-0.00271" y="49.43246" width="100" height="1.13511"/><rect x="-0.00271" y="40.48306" width="100" height="1.13511"/><rect x="-0.00271" y="31.53363" width="100" height="1.13511"/><rect x="81.53092" y="49.43245" width="35.79763" height="1.13511" transform="translate(49.42974 149.42974) rotate(-90)"/></g><path d="M57.36748,52.39679s-1.94976,3.1897-3.62959,4.19961c0,0-.65.21-.33-.76989,0,0,4.74954-5.1295,1.81983-10.289,0,0-2.74973-3.58962-5.78947-3.69965V57.22634a5.45819,5.45819,0,0,1-3.17968,4.59959c-2.57971,1.33983-5.37948,1.04988-6.2594-.63995-.87992-1.69985.49-4.15963,3.06971-5.48946a5.82,5.82,0,0,1,5.09953-.44V33.13872c0-.18.03-.4.23-.45a.52412.52412,0,0,1,.18-.02c.32,0,.75993.15.8599.39,0,.01.01.01.01.02a2.32539,2.32539,0,0,1,.06.52992c.01.21.02,1.58987.05,1.7898a7.48063,7.48063,0,0,0,.32,1.3399,4.236,4.236,0,0,0,2.04985,2.50976S61.85709,44.88758,57.36748,52.39679Z"/><path d="M90.86219,32.66874V57.18638h-.01a.486.486,0,0,1,.01.12,4.22224,4.22224,0,0,1-.31,1.47984,5.95288,5.95288,0,0,1-2.87972,3.03968,6.44848,6.44848,0,0,1-4.34962.70995,2.166,2.166,0,0,1-.29995-.08,2.51337,2.51337,0,0,1-.40994-.17,1.739,1.739,0,0,1-.33-.18,2.03633,2.03633,0,0,1-.4-.31,2.10073,2.10073,0,0,1-.24-.27,1.97933,1.97933,0,0,1-.21994-.33993c-.68994-1.31988-.02-3.08973,1.51981-4.44958.15-.12.31-.25.48-.38.11-.08.21995-.16.33993-.24q.345-.225.72-.41994a7.1326,7.1326,0,0,1,2.03978-.72c.19-.04.37-.06.54993-.08a.42027.42027,0,0,1,.16-.01,3.36169,3.36169,0,0,1,.44-.03,4.96066,4.96066,0,0,1,.54993.02c.01.01.01.01.02,0,.16.02.3.05.44991.07.14.04.28.06994.41.11h.01a2.06189,2.06189,0,0,1,.33993.15v-.01a.837.837,0,0,1,.14.06V36.81836H72.87389v20.408a5.35635,5.35635,0,0,1-2.79972,4.37958c-.13.08-.26.15-.39.21995-2.56969,1.3399-5.36947,1.05-6.25934-.63989-.87992-1.69985.49995-4.15963,3.06971-5.49947a5.90785,5.90785,0,0,1,5.10949-.44V32.66874Z"/><path d="M24.27281,41.64919l-1.43608-.03095c-.10256-.0022-.188.046-.20081.1133L21.648,46.92528a4.25193,4.25193,0,0,1-2.55639-.16464,2.06548,2.06548,0,1,0-2.8612-2.47375,2.49921,2.49921,0,0,0,.19785,2.04566,4.97324,4.97324,0,0,0,4.2012,2.20227,5.83674,5.83674,0,0,0,.72115-.0463L18.88987,61.42471c-.01575.08286.08347.1597.20974.16244l1.43593.03095c.10256.00223.188-.046.20081-.1133l3.74616-19.69314C24.49829,41.72877,24.39908,41.65193,24.27281,41.64919Z"/><path d="M14.69092,81.37793l-.9375,3.14844a21.77182,21.77182,0,0,1,1.37695-1.95508,4.39534,4.39534,0,0,1,1.05078-.9668,1.71372,1.71372,0,0,1,.83155-.22656.80123.80123,0,0,1,.68847.28516,1.03171,1.03171,0,0,1,.2124.62988,4.24212,4.24212,0,0,1-.19775,1.05469l-.32959,1.17871a21.21155,21.21155,0,0,1,1.36963-1.94727,4.56407,4.56407,0,0,1,1.1206-1.01172,1.39177,1.39177,0,0,1,.70313-.18945.87894.87894,0,0,1,.64844.25977.91639.91639,0,0,1,.25976.67773,4.52,4.52,0,0,1-.21972,1.21484l-.813,2.73243a3.72459,3.72459,0,0,0-.18311.7832.15689.15689,0,0,0,.04785.11035.14186.14186,0,0,0,.106.05176.20478.20478,0,0,0,.13916-.05176,3.14856,3.14856,0,0,0,.55664-.62207c.04395-.05859.10987-.14941.19776-.27148l.249.16113a4.00939,4.00939,0,0,1-1.10986,1.38379,1.94466,1.94466,0,0,1-1.1167.43945,1.02609,1.02609,0,0,1-.71778-.24512.75154.75154,0,0,1-.271-.57519,3.83217,3.83217,0,0,1,.1831-.95117l.82764-2.85743a3.98609,3.98609,0,0,0,.16846-.73925.135.135,0,0,0-.05127-.09864.15055.15055,0,0,0-.10254-.04785.451.451,0,0,0-.19043.04395,2.06935,2.06935,0,0,0-.42871.38086,9.99108,9.99108,0,0,0-.83106,1.10254,9.79108,9.79108,0,0,0-.751,1.24121,8.18018,8.18018,0,0,0-.41358,1.15722L16.31689,88.167h-1.853l1.36963-4.7832a2.37968,2.37968,0,0,0,.10986-.53418.1292.1292,0,0,0-.04736-.09473.14813.14813,0,0,0-.09912-.04492q-.271,0-.85694.71094a12.99657,12.99657,0,0,0-1.626,2.64453L12.7207,88.167H10.853L12.23,83.458a4.1039,4.1039,0,0,0,.20508-.98926.34191.34191,0,0,0-.0586-.20117.37408.37408,0,0,0-.19042-.13184,1.729,1.729,0,0,0-.50538-.04785l.07325-.27832,2.49755-.43164Z"/><path d="M23.28223,81.78809l2.42334-.41016H26.145l-.32813,1.19336a6.06686,6.06686,0,0,1,1.25977-.94824,2.1482,2.1482,0,0,1,.97266-.24512,1.22162,1.22162,0,0,1,1.0625.53027,2.19776,2.19776,0,0,1,.373,1.29981,5.41854,5.41854,0,0,1-1.457,3.72851,3.75617,3.75617,0,0,1-2.8125,1.43555,1.84453,1.84453,0,0,1-.46094-.05078,3.14207,3.14207,0,0,1-.53515-.22754l-.38086,1.31836a4.37985,4.37985,0,0,0-.20459,1.09082.45755.45755,0,0,0,.16113.37012,1.79561,1.79561,0,0,0,.7544.23144l-.06641.27051H20.543l.07324-.27051a1.17228,1.17228,0,0,0,.78027-.30078,2.82277,2.82277,0,0,0,.582-1.23047l1.7871-6.16015a4.16923,4.16923,0,0,0,.19776-.97364.35857.35857,0,0,0-.05859-.209.324.324,0,0,0-.17579-.12012,2.27207,2.27207,0,0,0-.52734-.03711Zm1.14209,5.625a1.61754,1.61754,0,0,0,.39648.47949.70924.70924,0,0,0,.41016.12012.90021.90021,0,0,0,.457-.12793,2.34137,2.34137,0,0,0,.55273-.51661,4.9073,4.9073,0,0,0,.63477-.99609,6.87162,6.87162,0,0,0,.66992-2.85547,1.34238,1.34238,0,0,0-.20117-.82031.60373.60373,0,0,0-.48828-.25684.94389.94389,0,0,0-.48242.13184,3.32925,3.32925,0,0,0-.77735.71094Z"/></svg>