<svg xmlns="http://www.w3.org/2000/svg" viewBox="0 0 100 100"><g style="opacity:0.2"><rect y="67.33126" width="100" height="1.13511"/><rect y="58.38186" width="100" height="1.13511"/><rect y="49.43246" width="100" height="1.13511"/><rect y="40.48306" width="100" height="1.13511"/><rect y="31.53363" width="100" height="1.13511"/><rect x="81.53363" y="49.43245" width="35.79763" height="1.13511" transform="translate(49.43245 149.43245) rotate(-90)"/></g><path d="M44.7752,62.66874h.86991a.20061.20061,0,0,0,.2-.2V40.09092a5.90786,5.90786,0,0,0,5.10949-.44c2.56976-1.33984,3.94963-3.79962,3.06971-5.49947-.88993-1.68983-3.68964-1.97978-6.2594-.64a5.45169,5.45169,0,0,0-3.18969,4.59959V62.46874A.20061.20061,0,0,0,44.7752,62.66874Zm3.70966-27.90732a4.66276,4.66276,0,0,1,2.56976-.56989,1.76834,1.76834,0,0,1,1.42985.7899c.51991.98989-.45,2.54974-2.10978,3.40964a4.838,4.838,0,0,1-2.21982.58,2.76152,2.76152,0,0,1-1.1399-.21995l-.01-.01a1.59378,1.59378,0,0,1-.75987-1.0699C46.1851,36.68128,47.125,35.47137,48.48486,34.76142Z"/></svg>