<svg xmlns="http://www.w3.org/2000/svg" viewBox="0 0 100 100"><g style="opacity:0.2"><rect y="67.33126" width="100" height="1.13511"/><rect y="58.38186" width="100" height="1.13511"/><rect y="49.43246" width="100" height="1.13511"/><rect y="40.48306" width="100" height="1.13511"/><rect y="31.53363" width="100" height="1.13511"/><rect x="81.53363" y="49.43245" width="35.79763" height="1.13511" transform="translate(49.43245 149.43245) rotate(-90)"/></g><path d="M91.64814,44.32436a5.90863,5.90863,0,0,1-5.11.44v23.29l-19.26-5.37v-24.52h.01a.48615.48615,0,0,1-.01-.12,4.22147,4.22147,0,0,1,.31-1.48,5.9535,5.9535,0,0,1,2.88-3.04,6.449,6.449,0,0,1,4.35-.71,2.167,2.167,0,0,1,.30005.08,2.516,2.516,0,0,1,.41.17,1.74123,1.74123,0,0,1,.33.18,2.03812,2.03812,0,0,1,.4.31,2.09692,2.09692,0,0,1,.24.27,1.98221,1.98221,0,0,1,.22.34c.69,1.32.02,3.09-1.52,4.45-.15.12-.31.25-.48.38-.11.08-.22.16-.34.24q-.345.225-.72.42005a7.13551,7.13551,0,0,1-2.04.72c-.19.04-.37.06-.55005.08a.42018.42018,0,0,1-.16.01,3.375,3.375,0,0,1-.44.03,4.9591,4.9591,0,0,1-.55-.02c-.01-.00994-.01-.00994-.02,0-.16-.02-.3-.05-.45-.06994-.13995-.04-.28-.07-.41-.11005h-.01a2.06308,2.06308,0,0,1-.34-.15v.01a.84063.84063,0,0,1-.14-.06006v18.44l16.72,4.66v-20.41a5.35682,5.35682,0,0,1,2.8-4.37994c.13-.08.26-.15.39-.22,2.57-1.34,5.37-1.05,6.26.64C95.58814,40.52437,94.21814,42.98433,91.64814,44.32436Z"/><path d="M42.63145,44.32436a5.90861,5.90861,0,0,1-5.11.44v23.29l-19.26-5.37v-24.52h.01a.48615.48615,0,0,1-.01-.12,4.22124,4.22124,0,0,1,.31-1.48,5.9535,5.9535,0,0,1,2.88-3.04,6.449,6.449,0,0,1,4.35-.71,2.167,2.167,0,0,1,.3.08,2.51633,2.51633,0,0,1,.41.17,1.74153,1.74153,0,0,1,.33.18,2.03841,2.03841,0,0,1,.4.31,2.09692,2.09692,0,0,1,.24005.27,1.98281,1.98281,0,0,1,.22.34c.69,1.32.02,3.09-1.52,4.45-.15.12-.31.25-.48.38-.11.08-.22.16-.34.24q-.345.225-.72.42005a7.13534,7.13534,0,0,1-2.04.72c-.19.04-.37.06-.55.08a.42021.42021,0,0,1-.16.01,3.37473,3.37473,0,0,1-.44.03,4.95937,4.95937,0,0,1-.55-.02c-.01-.00994-.01-.00994-.02,0-.16-.02-.3-.05-.45-.06994-.13995-.04-.28-.07-.41-.11005h-.01a2.06271,2.06271,0,0,1-.34-.15v.01a.84027.84027,0,0,1-.14-.06006v18.44l16.72,4.66v-20.41a5.35682,5.35682,0,0,1,2.8-4.37994c.13-.08.26-.15.39-.22,2.57-1.34,5.37-1.05,6.26.64C46.57146,40.52437,45.20146,42.98433,42.63145,44.32436Z"/><path d="M2.75012,42.40068h0V66.76473a.19738.19738,0,0,0,.1974.1974h.87115a.19739.19739,0,0,0,.1974-.1974V44.38031a5.89131,5.89131,0,0,0,5.1083-.43975c2.57481-1.33882,3.94772-3.79775,3.0667-5.49219s-3.68258-1.9828-6.25733-.644A5.44253,5.44253,0,0,0,2.75012,42.40068Z"/><path d="M51.7668,42.40068h0V66.76473a.19739.19739,0,0,0,.1974.1974h.87115a.19739.19739,0,0,0,.1974-.1974V44.38031a5.89131,5.89131,0,0,0,5.1083-.43975c2.57482-1.33882,3.94772-3.79775,3.0667-5.49219s-3.68258-1.9828-6.25732-.644A5.44254,5.44254,0,0,0,51.7668,42.40068Z"/></svg>