<svg xmlns="http://www.w3.org/2000/svg" viewBox="0 0 100 100"><g style="opacity:0.2"><rect y="67.33126" width="100" height="1.13511"/><rect y="58.38186" width="100" height="1.13511"/><rect y="49.43246" width="100" height="1.13511"/><rect y="40.48306" width="100" height="1.13511"/><rect y="31.53363" width="100" height="1.13511"/><rect x="81.53363" y="49.43245" width="35.79763" height="1.13511" transform="translate(49.43245 149.43245) rotate(-90)"/></g><path d="M24.27552,41.64919l-1.43608-.03095c-.10257-.0022-.188.046-.20081.1133l-.98792,5.19374a4.25193,4.25193,0,0,1-2.55639-.16464,2.06548,2.06548,0,1,0-2.86121-2.47375,2.49924,2.49924,0,0,0,.19786,2.04566,4.97323,4.97323,0,0,0,4.2012,2.20227,5.83674,5.83674,0,0,0,.72115-.0463L18.89258,61.42471c-.01575.08286.08347.1597.20973.16244l1.43594.03095c.10256.00223.188-.046.2008-.1133l3.74617-19.69314C24.501,41.72877,24.40178,41.65193,24.27552,41.64919Z"/><path d="M54.18054,42.91868c-.04.11006-.07.22006-.11006.33006-.95008,2.79035-3.25043,4.84066-5.7007,6.36082-1.95027,1.21018-2.8404,1.53023-3.41049,3.37044a3.00011,3.00011,0,0,1-.07.32005.23659.23659,0,0,1-.02.08.17991.17991,0,0,1-.05006.07v.01a.93837.93837,0,0,1-.7.25,1.05833,1.05833,0,0,1-.27006-.03c-.21-.06-.22006-.2-.22006-.4V29.14691a5.42668,5.42668,0,0,1,3.18041-4.59063c2.58036-1.34021,5.38072-1.06014,6.26084.6401.88012,1.69022-.49006,4.15051-3.07041,5.49071a5.8752,5.8752,0,0,1-5.11066.44006V48.69947a7.70682,7.70682,0,0,1,1.4502-.45007c3.56047-1.16013,5.93077-2.65037,6.47082-6.21084a16.14322,16.14322,0,0,0-1.24015-9.2912s-1.22013-1.90028-.08-1.90028c.16,0,.61007.82012.68009.93018a15.37318,15.37318,0,0,1,1.37017,2.60032A13.008,13.008,0,0,1,54.18054,42.91868Z"/><path d="M87.44965,35.35667a5.90863,5.90863,0,0,1-5.11.44v23.29l-19.26-5.37v-24.52h.01a.48615.48615,0,0,1-.01-.12,4.22147,4.22147,0,0,1,.31-1.48,5.9535,5.9535,0,0,1,2.88-3.04,6.449,6.449,0,0,1,4.35-.71,2.167,2.167,0,0,1,.3.08,2.516,2.516,0,0,1,.41.17,1.74123,1.74123,0,0,1,.33.18,2.03812,2.03812,0,0,1,.4.31,2.09692,2.09692,0,0,1,.24.27,1.98221,1.98221,0,0,1,.22.34c.69,1.32.02,3.09-1.52,4.45-.15.12-.31.25-.48.38-.11.08-.22.16-.34.24q-.345.225-.72.42a7.13551,7.13551,0,0,1-2.04.72c-.19.04-.37.06-.55.08a.42.42,0,0,1-.16.01,3.37331,3.37331,0,0,1-.44.03,4.9591,4.9591,0,0,1-.55-.02c-.01-.00995-.01-.00995-.02,0-.16-.02-.3-.05-.45-.06994-.13995-.04-.28-.07-.41-.11h-.01a2.06392,2.06392,0,0,1-.34-.15v.01a.84063.84063,0,0,1-.14-.06006v18.44l16.72,4.66v-20.41a5.35682,5.35682,0,0,1,2.8-4.37994c.13-.08.26-.15.39-.22,2.57-1.34,5.37-1.05,6.26.64C91.38965,31.55668,90.01965,34.01664,87.44965,35.35667Z"/></svg>