<svg xmlns="http://www.w3.org/2000/svg" viewBox="0 0 100 100"><g style="opacity:0.2"><rect y="67.32256" width="100" height="1.13511"/><rect y="58.37316" width="100" height="1.13511"/><rect y="49.42376" width="100" height="1.13511"/><rect y="40.47436" width="100" height="1.13511"/><rect y="31.52493" width="100" height="1.13511"/><rect x="81.53363" y="49.42375" width="35.79763" height="1.13511" transform="translate(49.44115 149.42375) rotate(-90)"/></g><path d="M8.02842,47.048h0V71.41207a.19738.19738,0,0,0,.1974.1974H9.097a.19739.19739,0,0,0,.1974-.1974V49.02765a5.89131,5.89131,0,0,0,5.1083-.43975c2.57481-1.33882,3.94772-3.79775,3.0667-5.49219s-3.68258-1.9828-6.25733-.644A5.44253,5.44253,0,0,0,8.02842,47.048Z"/><path d="M26.77565,47.048h0V71.41207a.19738.19738,0,0,0,.1974.1974h.87115a.19739.19739,0,0,0,.1974-.1974V49.02765a5.89131,5.89131,0,0,0,5.1083-.43975c2.57481-1.33882,3.94772-3.79775,3.0667-5.49219s-3.68258-1.9828-6.25733-.644A5.44253,5.44253,0,0,0,26.77565,47.048Z"/><path d="M88.64,48.58131a5.90867,5.90867,0,0,1-5.11.44v23.29l-19.26-5.37v-24.52h.01a.48607.48607,0,0,1-.01-.12,4.22147,4.22147,0,0,1,.31-1.48,5.95346,5.95346,0,0,1,2.88-3.04,6.449,6.449,0,0,1,4.35-.71,2.16669,2.16669,0,0,1,.3.08,2.516,2.516,0,0,1,.41.17,1.74011,1.74011,0,0,1,.33.18,2.03774,2.03774,0,0,1,.4.31,2.0955,2.0955,0,0,1,.24.27,1.98212,1.98212,0,0,1,.22.34c.69,1.32.02,3.09-1.52,4.45-.15.12-.31.25-.48.38-.11.08-.22.16-.34.24q-.345.225-.72.42a7.1349,7.1349,0,0,1-2.04.72c-.19.04-.37.06-.55.08a.42.42,0,0,1-.16.01,3.37331,3.37331,0,0,1-.44.03,4.9591,4.9591,0,0,1-.55-.02c-.01-.01-.01-.01-.02,0-.16-.02-.3-.05-.45-.06995-.13995-.04-.28-.07-.41-.11h-.01a2.06265,2.06265,0,0,1-.34-.15v.01a.84036.84036,0,0,1-.14-.06006v18.44l16.72,4.66v-20.41a5.35687,5.35687,0,0,1,2.8-4.37995c.13-.08.26-.15.39-.22,2.57-1.34,5.37-1.05,6.26.64C92.58,44.78132,91.21,47.24128,88.64,48.58131Z"/><path d="M47.9206,40.71423a4.83339,4.83339,0,0,1,1.23333,1.1393s2.47063,3.2471,2.50249,3.289c.26866.35308.72077.697.35,1.17341-.17472.2245-.43408.38344-.62337.60292q-.259.30042-.50528.61154a8.02958,8.02958,0,0,0-1.0301,1.56291,3.69427,3.69427,0,0,0-.17483.62125,4.37286,4.37286,0,0,0-.1249,1.40228,3.60317,3.60317,0,0,0,.27744,1.22937,5.48614,5.48614,0,0,0,.70959,1.0144c.22517.2992.45467.59588.681.89444l.501.66079c.12252.16161.40429.41182.43246.61794a.42942.42942,0,0,1-.01043.14764.8607.8607,0,0,1-.653.66332.13611.13611,0,0,1-.06616.00252.14737.14737,0,0,1-.05437-.03532,3.34177,3.34177,0,0,0-2.59241-.92249c-.34145.057-.53484.37225-.68161.65756a2.48652,2.48652,0,0,0,.00463,2.03324,15.83383,15.83383,0,0,0,1.11091,2.00919.18689.18689,0,0,1,.02775.06732c.03.23127-.45366.38294-.61034.41612-.15562.03294-.37929-.23609-.49086-.33079q-.26354-.22367-.51507-.461a11.63384,11.63384,0,0,1-.92968-.98439,4.1623,4.1623,0,0,1-1.14713-2.19618,4.3292,4.3292,0,0,1,.02677-1.04178,2.49091,2.49091,0,0,1,.76227-1.45649,2.43066,2.43066,0,0,1,.94621-.51312,2.63237,2.63237,0,0,1,.53428-.09515,2.21456,2.21456,0,0,1,.72006.07829c.20137.04691.54824.08182.59546-.186a1.22046,1.22046,0,0,0-.28836-.739,24.37278,24.37278,0,0,0-1.43085-2.10513c-.201-.26384-.40776-.52493-.6338-.768a2.22672,2.22672,0,0,0-.66678-.5711,1.31269,1.31269,0,0,1-.17369-.08137c-.19389-.12418-.12234-.47512-.07693-.66444a1.04312,1.04312,0,0,1,.36634-.55412,12.30941,12.30941,0,0,0,1.92491-2.02308c.41732-.56127.9993-1.3795.6536-2.108a10.09727,10.09727,0,0,0-1.374-2.17272c-.11119-.13081-.22811-.2568-.35161-.376-.13559-.13092-.006-.3861.11-.50607a.536.536,0,0,1,.68968-.03219Z"/></svg>