<svg xmlns="http://www.w3.org/2000/svg" viewBox="0 0 100 100"><g style="opacity:0.2"><rect y="67.33126" width="100" height="1.13511"/><rect y="58.38186" width="100" height="1.13511"/><rect y="49.43246" width="100" height="1.13511"/><rect y="40.48306" width="100" height="1.13511"/><rect y="31.53363" width="100" height="1.13511"/></g><path d="M27.83044,52.22624a8.51664,8.51664,0,0,0-4.44292-1.32313c-.73195-.0356-.82209.11437-1.18309-.41709a7.83824,7.83824,0,0,1-.46758-2.26072q-.46749-2.25306-.935-4.50616A15.36033,15.36033,0,0,0,26.20252,23.277c-.5948-1.0869-1.54571-2.21851-2.78278-2.14981a3.28591,3.28591,0,0,0-2.23125,1.50757,15.8959,15.8959,0,0,0-3.009,8.16428,30.459,30.459,0,0,0,.62213,8.76211,1.61083,1.61083,0,0,1,.01747.83016,1.58255,1.58255,0,0,1-.59118.67494c-3.4847,2.68975-7.23538,5.40094-9.0781,9.39871a12.65739,12.65739,0,0,0-.92242,7.655,10.049,10.049,0,0,0,4.23947,6.61044,13.06228,13.06228,0,0,0,4.984,1.65969,16.71454,16.71454,0,0,0,6.651-.07525c.24912,1.31795.4611,2.64326.62469,3.97456.12909,1.05049.25983,2.12055.30776,3.1848.01535.34018-.01169.67177-.01169,1.01009A4.55365,4.55365,0,0,1,24.30888,76.45a4.919,4.919,0,0,1-.57029.73075,7.01335,7.01335,0,0,1-2.30921,1.55951,5.48638,5.48638,0,0,1-1.92836.46061,4.78468,4.78468,0,0,1-.99928-.05525l-.08606-.01443a4.23229,4.23229,0,1,0-5.7138-1.751l-.0244-.00754c.05969.115.13067.21462.1955.32269.02623.041.04792.08461.07553.12468,2.21079,3.49192,7.0589,3.30054,7.0589,3.30054a6.22559,6.22559,0,0,0,1.78391-.2443,7.20561,7.20561,0,0,0,3.37438-1.89941,6.98663,6.98663,0,0,0,1.113-1.50684,5.56526,5.56526,0,0,0,.58431-1.42306,6.56888,6.56888,0,0,0,.04286-2.11593,48.39867,48.39867,0,0,0-.78344-4.87385q-.11472-.57344-.22937-1.147-.205-1.02462-.40983-2.04928l-.02071-.10345s4.05929-1.184,4.905-4.73589C30.36758,61.02148,31.97431,55.44,27.83044,52.22624ZM20.55689,26.903a3.05746,3.05746,0,0,1,5.48939,1.52638,10.82765,10.82765,0,0,1-2.95169,7.89786,26.47077,26.47077,0,0,1-3.14891,3.18821l-.41568-1.973c-.02993-.145-.04979-.51343-.0725-.6598a29.53084,29.53084,0,0,1-.20617-7.0708A6.52015,6.52015,0,0,1,20.55689,26.903Zm-6.70266,36.33a8.40568,8.40568,0,0,1-3.09306-5.838c-.12469-2.59887,1.23549-5.04575,2.86521-7.074a25.52476,25.52476,0,0,1,5.84348-5.3165q.56843,2.46054,1.13689,4.9211a1.63446,1.63446,0,0,1,.00881,1.04309,1.83283,1.83283,0,0,1-.88052.72044,8.0571,8.0571,0,0,0-4.07189,6.89956A5.53845,5.53845,0,0,0,16.36933,61.65a2.92026,2.92026,0,0,0,2.65781,1.44067c-.45385.04888-1.18038-1.912-1.28116-2.24579a6.167,6.167,0,0,1-.16092-2.89155,4.334,4.334,0,0,1,3.99-3.61621c.74618,3.3624,1.61151,7.35542,2.314,10.85582l.01028.05151A10.77085,10.77085,0,0,1,13.85423,63.233Zm11.33658,1.37923L24.89932,63.082c-.007-.04264-.00673-.08472-.01553-.1275L23.05773,54.287c1.16189.0618,4.41345.62857,5.25621,4.98273C28.31394,59.26972,29.03755,62.54546,25.19081,64.61224Z"/><path d="M42.68015,45.09046a4.00361,4.00361,0,0,0-3.41468,1.19892l-.00413-10.15079a.16023.16023,0,0,0-.14186-.17366h-.68563A.16048.16048,0,0,0,38.292,36.14l-.00421,19.348a.46005.46005,0,0,0-.00027.11953l-.00051.13209q-.00012.05946,0,.119c.0001.02435.00254.04854.00442.07281.00166.02138-.00212.031.01915.03294.08741.00812.17516-.06665.24833-.10541.16781-.08888.34214-.16464.51015-.25312a9.05375,9.05375,0,0,0,1.00645-.64763c.1953-.13861.37921-.2906.57052-.43408.12012-.0991.24106-.19748.35931-.299q.42261-.36291.81241-.762.35619-.36569.67965-.7615.29517-.362.55874-.74836.23957-.35182.44961-.72254.1895-.33492.35231-.684.145-.31138.26681-.63282.10625-.281.1931-.56889.07338-.24395.13121-.49228.04642-.20022.08113-.403c.017-.09994.03154-.20027.04286-.301.007-.06192.01293-.124.01641-.18629.001-.01834.00075-.0369.002-.05522A2.49656,2.49656,0,0,0,42.68015,45.09046Zm.80131,2.77691c0,.03781-.06434,3.6274-4.21339,6.47937l-.002-6.31716a3.40837,3.40837,0,0,1,3.21705-1.84464A1.4444,1.4444,0,0,1,43.48146,47.86737Z"/><path d="M59.82218,49.12555a4.00362,4.00362,0,0,0-3.41469,1.19891l-.00413-10.15078A.16023.16023,0,0,0,56.26151,40h-.68564a.16048.16048,0,0,0-.14182.175l-.00421,19.348a.46057.46057,0,0,0-.00027.11954l-.00051.13209q-.00012.05946,0,.119c.00011.02436.00255.04855.00442.07282.00167.02138-.00212.03095.01915.03294.08741.00812.17517-.06665.24833-.10541.16781-.08888.34215-.16465.51015-.25313a9.05222,9.05222,0,0,0,1.00645-.64762c.1953-.13861.37921-.2906.57052-.43409.12013-.0991.24106-.19747.35931-.299q.42261-.36291.81241-.762.35619-.36568.67965-.7615.29517-.362.55874-.74837.23958-.35181.44961-.72253.1895-.33492.35231-.684.145-.31137.26681-.63282.10625-.281.19311-.56888.07338-.244.1312-.49228.04643-.20023.08113-.403c.017-.09993.03154-.20026.04286-.301.007-.06193.01293-.124.01641-.18629.001-.01835.00075-.03691.002-.05522A2.49655,2.49655,0,0,0,59.82218,49.12555Zm.8013,2.7769c0,.03782-.06434,3.6274-4.21339,6.47938l-.002-6.31717A3.40838,3.40838,0,0,1,59.6251,50.22,1.44439,1.44439,0,0,1,60.62348,51.90245Z"/><path d="M51.25117,31.22671a4.00363,4.00363,0,0,0-3.41469,1.19892l-.00413-10.15079a.16023.16023,0,0,0-.14186-.17366h-.68563a.16049.16049,0,0,0-.14182.17506l-.00421,19.348a.46013.46013,0,0,0-.00027.11954l-.00051.13208q-.00012.05946,0,.119c.0001.02435.00255.04854.00442.07282.00167.02137-.00212.031.01915.03293.08741.00813.17516-.06665.24833-.1054.16781-.08888.34214-.16465.51015-.25313a9.05231,9.05231,0,0,0,1.00645-.64763c.1953-.1386.37921-.29059.57052-.43408.12013-.0991.24106-.19748.35931-.299q.42261-.36292.81241-.762.35619-.3657.67965-.76151.29517-.362.55874-.74836.23957-.35181.44961-.72254.1895-.3349.35231-.684.145-.31139.26681-.63282.10625-.281.19311-.56888.07338-.244.1312-.49229.04643-.20022.08113-.403c.017-.09993.03154-.20027.04286-.301.007-.06193.01293-.12405.01641-.1863.001-.01834.00075-.0369.002-.05522A2.49656,2.49656,0,0,0,51.25117,31.22671Zm.8013,2.77691c0,.03782-.06434,3.6274-4.21339,6.47937l-.002-6.31716a3.40841,3.40841,0,0,1,3.21705-1.84464A1.4444,1.4444,0,0,1,52.05247,34.00362Z"/><path d="M90.85645,50H81.11523v-.26855a53.98206,53.98206,0,0,0,5.43848-7.17774,7.777,7.777,0,0,0,.958-3.60059,2.99733,2.99733,0,0,0-.79395-2.13085,2.554,2.554,0,0,0-1.94043-.84766,3.206,3.206,0,0,0-2.917,1.87891l-.45215-.15821a6.76287,6.76287,0,0,1,2.002-3.46679,4.69009,4.69009,0,0,1,3.10058-1.12305,4.58584,4.58584,0,0,1,2.29492.58594,4.24385,4.24385,0,0,1,1.623,1.60547,3.86613,3.86613,0,0,1,.58594,1.91015,6.907,6.907,0,0,1-.90235,3.2959,31.29431,31.29431,0,0,1-5.38378,6.29883h3.57714a8.08539,8.08539,0,0,0,1.71485-.11035,1.403,1.403,0,0,0,.65234-.37207,4.76185,4.76185,0,0,0,.67188-1.1045h.43945Z"/><path d="M81.12793,60.76172l7.86133-10.65625h1.48828V60.76172h1.51367v2.52734H90.47754V67H87.12109V63.28906H81.12793Zm1.18359,0h4.80957V54.23145Z"/></svg>