<svg xmlns="http://www.w3.org/2000/svg" viewBox="0 0 100 100"><g style="opacity:0.2"><rect y="67.33126" width="100" height="1.13511"/><rect y="58.38186" width="100" height="1.13511"/><rect y="49.43246" width="100" height="1.13511"/><rect y="40.48306" width="100" height="1.13511"/><rect y="31.53363" width="100" height="1.13511"/></g><path d="M27.83044,52.23711A8.51664,8.51664,0,0,0,23.38752,50.914c-.73195-.0356-.82209.11437-1.18309-.41709a7.83824,7.83824,0,0,1-.46758-2.26072q-.46749-2.25306-.935-4.50616a15.36033,15.36033,0,0,0,5.40062-20.4421c-.5948-1.0869-1.54571-2.21851-2.78278-2.14981a3.28591,3.28591,0,0,0-2.23125,1.50757,15.8959,15.8959,0,0,0-3.009,8.16428,30.459,30.459,0,0,0,.62213,8.76211,1.61083,1.61083,0,0,1,.01747.83016,1.58255,1.58255,0,0,1-.59118.67494c-3.4847,2.68975-7.23538,5.40094-9.0781,9.39871a12.65739,12.65739,0,0,0-.92242,7.655,10.049,10.049,0,0,0,4.23947,6.61044,13.06228,13.06228,0,0,0,4.984,1.65969,16.71454,16.71454,0,0,0,6.651-.07525c.24912,1.31795.4611,2.64326.62469,3.97456.12909,1.05049.25983,2.12055.30776,3.1848.01535.34018-.01169.67177-.01169,1.01009a4.55365,4.55365,0,0,1-.71379,1.96565,4.919,4.919,0,0,1-.57029.73075,7.01335,7.01335,0,0,1-2.30921,1.55951,5.48638,5.48638,0,0,1-1.92836.46061,4.78468,4.78468,0,0,1-.99928-.05525l-.08606-.01443a4.23229,4.23229,0,1,0-5.7138-1.751l-.0244-.00754c.05969.115.13067.21462.1955.32269.02623.041.04792.08461.07553.12468,2.21079,3.49192,7.0589,3.30054,7.0589,3.30054a6.22559,6.22559,0,0,0,1.78391-.2443,7.20561,7.20561,0,0,0,3.37438-1.89941,6.98663,6.98663,0,0,0,1.113-1.50684,5.56512,5.56512,0,0,0,.58431-1.42306,6.56888,6.56888,0,0,0,.04286-2.11593,48.398,48.398,0,0,0-.78344-4.87384q-.11472-.57345-.22937-1.147-.205-1.02462-.40983-2.04928l-.02071-.10345s4.05929-1.184,4.905-4.73589C30.36758,61.03235,31.97431,55.45088,27.83044,52.23711ZM20.55689,26.91387a3.05746,3.05746,0,0,1,5.48939,1.52638,10.82765,10.82765,0,0,1-2.95169,7.89786,26.47,26.47,0,0,1-3.14891,3.18821l-.41568-1.973c-.02993-.145-.04979-.51342-.0725-.6598a29.53083,29.53083,0,0,1-.20617-7.0708A6.52015,6.52015,0,0,1,20.55689,26.91387Zm-6.70266,36.33a8.40568,8.40568,0,0,1-3.09306-5.838c-.12469-2.59886,1.23549-5.04575,2.86521-7.074a25.52476,25.52476,0,0,1,5.84348-5.3165q.56843,2.46054,1.13689,4.9211a1.63446,1.63446,0,0,1,.00881,1.04309A1.83277,1.83277,0,0,1,19.735,51.7a8.0571,8.0571,0,0,0-4.07189,6.89956,5.53845,5.53845,0,0,0,.70618,3.06127,2.92026,2.92026,0,0,0,2.65781,1.44067c-.45385.04888-1.18038-1.912-1.28116-2.24579a6.167,6.167,0,0,1-.16092-2.89155,4.334,4.334,0,0,1,3.99-3.61621c.74618,3.3624,1.61151,7.35542,2.314,10.85582l.01028.05152A10.77088,10.77088,0,0,1,13.85423,63.24388Zm11.33658,1.37923-.29149-1.53029c-.007-.04264-.00673-.08472-.01553-.1275l-1.82606-8.66746c1.16189.0618,4.41345.62857,5.25621,4.98273C28.31394,59.28059,29.03755,62.55633,25.19081,64.62311Z"/><path d="M43.57,45.10133a4.00363,4.00363,0,0,0-3.41469,1.19892l-.00413-10.15079a.16023.16023,0,0,0-.14185-.17366h-.68564a.16048.16048,0,0,0-.14182.17506l-.00421,19.348a.46049.46049,0,0,0-.00027.11953l-.00051.13209q-.00012.05946,0,.119c.00011.02435.00255.04854.00442.07281.00167.02138-.00212.03095.01915.03294.08741.00813.17517-.06665.24833-.1054.16781-.08889.34215-.16465.51015-.25313a9.05231,9.05231,0,0,0,1.00645-.64763c.1953-.13861.37921-.2906.57052-.43408.12013-.0991.24106-.19748.35931-.299q.42261-.36292.81241-.762.35619-.36568.67965-.7615.29517-.362.55874-.74836.23958-.35181.44961-.72254.18949-.33492.35231-.684.145-.31139.26681-.63282.10625-.281.19311-.56889.07338-.24394.1312-.49228.04642-.20022.08113-.403c.017-.09993.03154-.20027.04286-.301.007-.06192.01293-.124.01641-.18629.001-.01834.00075-.0369.002-.05522A2.49656,2.49656,0,0,0,43.57,45.10133Zm.8013,2.77691c0,.03781-.06434,3.6274-4.21339,6.47937l-.002-6.31716a3.40841,3.40841,0,0,1,3.21705-1.84464A1.4444,1.4444,0,0,1,44.3713,47.87824Z"/><path d="M52.141,31.23758a4.00366,4.00366,0,0,0-3.41469,1.19892l-.00413-10.15079a.16024.16024,0,0,0-.14185-.17366h-.68563a.16049.16049,0,0,0-.14183.17506l-.00421,19.348a.461.461,0,0,0-.00027.11954l-.00051.13209q-.00012.05946,0,.119c.00011.02435.00255.04854.00442.07282.00167.02137-.00211.03095.01915.03293.08741.00813.17517-.06665.24833-.1054.16781-.08888.34215-.16465.51015-.25313a9.05231,9.05231,0,0,0,1.00645-.64763c.1953-.1386.37921-.29059.57052-.43408.12013-.0991.24106-.19748.35931-.299q.42261-.36293.81241-.762.35619-.3657.67965-.76151.29517-.362.55874-.74836.23958-.35181.44961-.72254.1895-.3349.35231-.684.145-.31138.26681-.63282.10625-.281.19311-.56888.07338-.244.1312-.49229.04643-.20022.08113-.403c.017-.09993.03154-.20027.04286-.301.007-.06193.01293-.124.01641-.1863.001-.01834.00076-.0369.002-.05522A2.49656,2.49656,0,0,0,52.141,31.23758Zm.8013,2.77691c0,.03782-.06434,3.6274-4.21339,6.47937l-.002-6.31716a3.40841,3.40841,0,0,1,3.21705-1.84464A1.4444,1.4444,0,0,1,52.94231,34.01449Z"/><path d="M91.89648,41.24756v5.73828h-.47656a6.11514,6.11514,0,0,0-2.002-3.44336,5.11007,5.11007,0,0,0-3.32031-1.19531,4.90785,4.90785,0,0,0-2.84375.89062,5.18723,5.18723,0,0,0-1.89258,2.332,10.55213,10.55213,0,0,0-.76953,4.10157,13.69174,13.69174,0,0,0,.5625,4.04541,5.37577,5.37577,0,0,0,1.75781,2.75879,4.88563,4.88563,0,0,0,3.09961.93359,6.05517,6.05517,0,0,0,2.86328-.68359,9.8798,9.8798,0,0,0,2.74023-2.35547v1.42773a9.04569,9.04569,0,0,1-2.89941,2.10645,8.81332,8.81332,0,0,1-3.52148.65332,10.1124,10.1124,0,0,1-4.70606-1.0625,7.51269,7.51269,0,0,1-3.17383-3.05176,8.52314,8.52314,0,0,1-1.11718-4.23486,9.04048,9.04048,0,0,1,4.584-7.78907,9.06405,9.06405,0,0,1,4.47461-1.17187,10.14284,10.14284,0,0,1,3.68555.75781,5.67793,5.67793,0,0,0,1.42871.43945.9263.9263,0,0,0,.67773-.28711,1.56124,1.56124,0,0,0,.37207-.91015Z"/></svg>