<svg xmlns="http://www.w3.org/2000/svg" viewBox="0 0 100 100"><g style="opacity:0.2"><rect y="67.18616" width="100" height="1.13511"/><rect y="58.23676" width="100" height="1.13511"/><rect y="49.28736" width="100" height="1.13511"/><rect y="40.33796" width="100" height="1.13511"/><rect y="31.38853" width="100" height="1.13511"/><rect x="81.53363" y="49.28735" width="35.79763" height="1.13511" transform="translate(49.57755 149.28735) rotate(-90)"/></g><path d="M57.37019,52.25169s-1.94976,3.1897-3.62959,4.19961c0,0-.65.21-.33-.76989,0,0,4.74954-5.1295,1.81983-10.289,0,0-2.74973-3.58962-5.78947-3.69966V57.08124a5.45818,5.45818,0,0,1-3.17969,4.59959c-2.5797,1.33983-5.37948,1.04988-6.2594-.63995-.87991-1.69985.49-4.15963,3.06971-5.48946a5.82,5.82,0,0,1,5.09954-.44V32.99362c0-.18.03-.4.23-.45a.52382.52382,0,0,1,.18-.02c.32,0,.75993.15.8599.39,0,.01.01.01.01.02a2.32539,2.32539,0,0,1,.06.52992c.01.21.02,1.58987.05,1.7898a7.48083,7.48083,0,0,0,.32,1.3399A4.236,4.236,0,0,0,51.93078,39.103S61.8598,44.74248,57.37019,52.25169Z"/><path d="M90.8649,32.52363V57.04128h-.01a.486.486,0,0,1,.01.12,4.22251,4.22251,0,0,1-.31,1.47984,5.95292,5.95292,0,0,1-2.87972,3.03968,6.4485,6.4485,0,0,1-4.34962.70995,2.168,2.168,0,0,1-.3-.08,2.51326,2.51326,0,0,1-.40993-.17,1.739,1.739,0,0,1-.33-.18,2.036,2.036,0,0,1-.4-.31,2.10065,2.10065,0,0,1-.24-.27,1.97976,1.97976,0,0,1-.21995-.33993c-.68993-1.31988-.02-3.08973,1.51981-4.44958.15-.12.31-.25.48-.38.11-.08.22-.16.33993-.24q.345-.225.72-.41994a7.13281,7.13281,0,0,1,2.03978-.72c.19-.04.37-.06.54994-.08a.42027.42027,0,0,1,.16-.01,3.36175,3.36175,0,0,1,.44-.03,4.95819,4.95819,0,0,1,.54993.02c.01.01.01.01.02,0,.16.02.3.05.44991.07.14.04.28.06994.41.11h.01a2.06142,2.06142,0,0,1,.33993.15v-.01a.83651.83651,0,0,1,.14.06V36.67326H72.87659v20.408a5.35633,5.35633,0,0,1-2.79971,4.37958c-.13.08-.26.15-.39.21995-2.5697,1.3399-5.36947,1.05-6.25934-.63989-.87992-1.69985.49995-4.15963,3.06971-5.49947a5.90785,5.90785,0,0,1,5.10949-.44V32.52363Z"/><path d="M24.27552,41.50409l-1.43608-.03095c-.10257-.0022-.188.046-.20081.1133l-.98792,5.19374a4.25193,4.25193,0,0,1-2.55639-.16464,2.06548,2.06548,0,1,0-2.86121-2.47375,2.49924,2.49924,0,0,0,.19786,2.04566,4.97323,4.97323,0,0,0,4.2012,2.20227,5.83674,5.83674,0,0,0,.72115-.0463L18.89258,61.27961c-.01575.08286.08347.1597.20973.16244l1.43594.03094c.10256.00224.188-.046.2008-.11329l3.74617-19.69314C24.501,41.58367,24.40178,41.50683,24.27552,41.50409Z"/><path d="M18.36621,81.64258l2.42432-.41016H21.23l-.32959,1.19336a6.1186,6.1186,0,0,1,1.25977-.94824,2.15716,2.15716,0,0,1,.97412-.24512,1.22189,1.22189,0,0,1,1.062.53028,2.20487,2.20487,0,0,1,.37353,1.2998A5.42359,5.42359,0,0,1,23.1123,86.791a3.75616,3.75616,0,0,1-2.8125,1.43554,1.84308,1.84308,0,0,1-.46142-.05078,3.10809,3.10809,0,0,1-.53467-.22754l-.38086,1.31836a4.363,4.363,0,0,0-.20508,1.09082.45752.45752,0,0,0,.16114.37012,1.79284,1.79284,0,0,0,.75439.23144l-.06592.27051H15.627l.07325-.27051a1.17228,1.17228,0,0,0,.78027-.30078,2.82261,2.82261,0,0,0,.582-1.23047l1.78711-6.16015a4.1427,4.1427,0,0,0,.19775-.97363.35859.35859,0,0,0-.05859-.209.32406.32406,0,0,0-.17578-.12012,2.27224,2.27224,0,0,0-.52735-.03711Zm1.14258,5.625a1.61737,1.61737,0,0,0,.39551.47949.70919.70919,0,0,0,.41015.12012.90617.90617,0,0,0,.458-.12793,2.36027,2.36027,0,0,0,.55274-.5166,4.95019,4.95019,0,0,0,.63378-.9961,6.85168,6.85168,0,0,0,.66993-2.85547,1.3357,1.3357,0,0,0-.20118-.82031.6033.6033,0,0,0-.4873-.25683.94736.94736,0,0,0-.4834.13183,3.32864,3.32864,0,0,0-.77637.71094Z"/></svg>