<svg xmlns="http://www.w3.org/2000/svg" viewBox="0 0 100 100"><g style="opacity:0.2"><rect y="67.33126" width="100" height="1.13511"/><rect y="58.38186" width="100" height="1.13511"/><rect y="49.43246" width="100" height="1.13511"/><rect y="40.48306" width="100" height="1.13511"/><rect y="31.53363" width="100" height="1.13511"/><rect x="81.53363" y="49.43245" width="35.79763" height="1.13511" transform="translate(49.43245 149.43245) rotate(-90)"/></g><path d="M57.37019,52.39679s-1.94976,3.1897-3.62959,4.19961c0,0-.65.21-.33-.76989,0,0,4.74954-5.1295,1.81983-10.289,0,0-2.74973-3.58962-5.78947-3.69965V57.22634a5.45818,5.45818,0,0,1-3.17969,4.59959c-2.5797,1.33983-5.37948,1.04988-6.2594-.63995-.87991-1.69985.49-4.15963,3.06971-5.48946a5.82,5.82,0,0,1,5.09954-.44V33.13872c0-.18.03-.4.23-.45a.52407.52407,0,0,1,.18-.02c.32,0,.75993.15.8599.39,0,.01.01.01.01.02a2.32539,2.32539,0,0,1,.06.52992c.01.21.02,1.58987.05,1.7898a7.48063,7.48063,0,0,0,.32,1.3399,4.236,4.236,0,0,0,2.04985,2.50976S61.8598,44.88758,57.37019,52.39679Z"/><path d="M90.8649,32.66874V57.18638h-.01a.486.486,0,0,1,.01.12,4.22246,4.22246,0,0,1-.31,1.47984,5.95292,5.95292,0,0,1-2.87972,3.03968,6.4485,6.4485,0,0,1-4.34962.70995,2.16654,2.16654,0,0,1-.3-.08,2.51326,2.51326,0,0,1-.40993-.17,1.739,1.739,0,0,1-.33-.18,2.036,2.036,0,0,1-.4-.31,2.1,2.1,0,0,1-.24-.27,1.97938,1.97938,0,0,1-.21995-.33993c-.68993-1.31988-.02-3.08973,1.51981-4.44958.15-.12.31-.25.48-.38.11-.08.22-.16.33993-.24q.345-.225.72-.41994a7.13281,7.13281,0,0,1,2.03978-.72c.19-.04.37-.06.54994-.08a.42027.42027,0,0,1,.16-.01,3.36169,3.36169,0,0,1,.44-.03,4.96066,4.96066,0,0,1,.54993.02c.01.01.01.01.02,0,.16.02.3.05.44991.07.14.04.28.06994.41.11h.01a2.06226,2.06226,0,0,1,.33993.15v-.01a.83651.83651,0,0,1,.14.06V36.81836H72.87659v20.408a5.35633,5.35633,0,0,1-2.79971,4.37958c-.13.08-.26.15-.39.21995-2.5697,1.3399-5.36947,1.05-6.25934-.63989-.87992-1.69985.49995-4.15963,3.06971-5.49947a5.90785,5.90785,0,0,1,5.10949-.44V32.66874Z"/><path d="M24.27552,41.64919l-1.43608-.03095c-.10257-.0022-.188.046-.20081.1133l-.98792,5.19374a4.25193,4.25193,0,0,1-2.55639-.16464,2.06548,2.06548,0,1,0-2.86121-2.47375,2.49924,2.49924,0,0,0,.19786,2.04566,4.97323,4.97323,0,0,0,4.2012,2.20227,5.83674,5.83674,0,0,0,.72115-.0463L18.89258,61.42471c-.01575.08286.08347.1597.20973.16244l1.43594.03095c.10256.00223.188-.046.2008-.1133l3.74617-19.69314C24.501,41.72877,24.40178,41.65193,24.27552,41.64919Z"/><path d="M19.19385,82.43945l-.85694,3.38379A16.5924,16.5924,0,0,1,17.165,89.29492a4.29,4.29,0,0,1-1.33643,1.59278,3.06107,3.06107,0,0,1-1.75439.5166,1.43877,1.43877,0,0,1-.91553-.23828.70464.70464,0,0,1-.293-.55957.6803.6803,0,0,1,.2417-.52051.91068.91068,0,0,1,.63721-.21973.70183.70183,0,0,1,.50537.168.56413.56413,0,0,1,.17578.42578.48534.48534,0,0,1-.10986.34766c-.07324.07519-.10987.125-.10987.15039l.03663.05078a.15574.15574,0,0,0,.10253.03711.53731.53731,0,0,0,.37354-.13965,2.12831,2.12831,0,0,0,.57861-.835q.13184-.33692.50537-1.7793l1.49415-5.85254H16.27881l.2417-.85644a1.59808,1.59808,0,0,0,.79834-.13965,1.70185,1.70185,0,0,0,.52734-.65918,6.25336,6.25336,0,0,1,1.69922-2.13086,3.32557,3.32557,0,0,1,1.99219-.64453,1.56333,1.56333,0,0,1,1.02148.27051.87852.87852,0,0,1,.31885.70312.84218.84218,0,0,1-.2124.60449.69929.69929,0,0,1-.52735.22266.66873.66873,0,0,1-.48339-.18262.588.588,0,0,1-.19043-.43945.76333.76333,0,0,1,.12109-.3877.73849.73849,0,0,0,.1206-.27929.1701.1701,0,0,0-.05517-.13086.19981.19981,0,0,0-.14258-.05176,1.23579,1.23579,0,0,0-.88623.53418A6.52389,6.52389,0,0,0,19.4209,81.583h1.062l-.25635.85644Z"/><path d="M23.918,82.43945,23.061,85.82324a16.59288,16.59288,0,0,1-1.17188,3.47168,4.29,4.29,0,0,1-1.33643,1.59278,3.06107,3.06107,0,0,1-1.75439.5166,1.43877,1.43877,0,0,1-.91553-.23828.70464.70464,0,0,1-.293-.55957.6803.6803,0,0,1,.2417-.52051.9107.9107,0,0,1,.63721-.21973.70183.70183,0,0,1,.50537.168.56413.56413,0,0,1,.17578.42578.48534.48534,0,0,1-.10986.34766c-.07324.07519-.10986.125-.10986.15039l.03662.05078a.15575.15575,0,0,0,.10254.03711.53731.53731,0,0,0,.37353-.13965,2.12831,2.12831,0,0,0,.57861-.835q.13185-.33692.50538-1.7793L22.021,82.43945H21.00293l.2417-.85644a1.59808,1.59808,0,0,0,.79834-.13965,1.70176,1.70176,0,0,0,.52734-.65918,6.25336,6.25336,0,0,1,1.69922-2.13086,3.32557,3.32557,0,0,1,1.99219-.64453,1.56333,1.56333,0,0,1,1.02148.27051.87852.87852,0,0,1,.31885.70312.84218.84218,0,0,1-.2124.60449.69928.69928,0,0,1-.52735.22266.66873.66873,0,0,1-.48339-.18262.588.588,0,0,1-.19043-.43945.76342.76342,0,0,1,.12109-.3877.73857.73857,0,0,0,.12061-.27929.1701.1701,0,0,0-.05518-.13086.19979.19979,0,0,0-.14258-.05176,1.23583,1.23583,0,0,0-.88623.53418A6.52389,6.52389,0,0,0,24.145,81.583h1.062l-.25635.85644Z"/></svg>