<svg xmlns="http://www.w3.org/2000/svg" viewBox="0 0 100 100"><g style="opacity:0.2"><rect y="67.33126" width="100" height="1.13511"/><rect y="58.38186" width="100" height="1.13511"/><rect y="49.43246" width="100" height="1.13511"/><rect y="40.48306" width="100" height="1.13511"/><rect y="31.53363" width="100" height="1.13511"/><rect x="81.53363" y="49.43245" width="35.79763" height="1.13511" transform="translate(49.43245 149.43245) rotate(-90)"/></g><path d="M57.37019,25.39969s-1.94976,3.18969-3.62959,4.1996c0,0-.65.21-.33-.76988,0,0,4.74954-5.12951,1.81983-10.289,0,0-2.74973-3.58962-5.78947-3.69965V30.22923a5.45816,5.45816,0,0,1-3.17969,4.59959c-2.5797,1.33984-5.37948,1.04989-6.2594-.63995-.87991-1.69985.49-4.15963,3.06971-5.48946a5.82007,5.82007,0,0,1,5.09954-.44V6.14161c0-.18.03-.4.23-.45a.52382.52382,0,0,1,.18-.02c.32,0,.75993.15.8599.39,0,.01.01.01.01.02a2.32539,2.32539,0,0,1,.06.52992c.01.21.02,1.58987.05,1.7898a7.48063,7.48063,0,0,0,.32,1.3399A4.236,4.236,0,0,0,51.93078,12.251S61.8598,17.89047,57.37019,25.39969Z"/><path d="M90.8649,5.67163V30.18927h-.01a.486.486,0,0,1,.01.12,4.22242,4.22242,0,0,1-.31,1.47984,5.95288,5.95288,0,0,1-2.87972,3.03968,6.4485,6.4485,0,0,1-4.34962.70995,2.168,2.168,0,0,1-.3-.08,2.51416,2.51416,0,0,1-.40993-.17,1.73845,1.73845,0,0,1-.33-.18,2.036,2.036,0,0,1-.4-.31,2.10075,2.10075,0,0,1-.24-.27,1.97938,1.97938,0,0,1-.21995-.33993c-.68993-1.31988-.02-3.08973,1.51981-4.44958.15-.12.31-.25.48-.38.11-.08.22-.16.33993-.24q.345-.225.72-.41994a7.13281,7.13281,0,0,1,2.03978-.72c.19-.04.37-.06.54994-.08a.42027.42027,0,0,1,.16-.00995,3.36343,3.36343,0,0,1,.44-.03,4.96066,4.96066,0,0,1,.54993.02c.01.01.01.01.02,0,.16.02.3.05.44991.07.14.04.28.06993.41.11h.01a2.06226,2.06226,0,0,1,.33993.15v-.00995a.83734.83734,0,0,1,.14.06V9.82125H72.87659v20.408a5.35633,5.35633,0,0,1-2.79971,4.37958c-.13.08-.26.15-.39.21995-2.5697,1.3399-5.36947,1.05-6.25934-.63989-.87992-1.69985.49995-4.15963,3.06971-5.49947a5.90785,5.90785,0,0,1,5.10949-.44V5.67163Z"/><path d="M24.27552,24.08036l-1.43608-.03095c-.10257-.0022-.188.046-.20081.1133l-.98792,5.19374a4.25193,4.25193,0,0,1-2.55639-.16464,2.06549,2.06549,0,1,0-2.86121-2.47375,2.49924,2.49924,0,0,0,.19786,2.04566,4.97322,4.97322,0,0,0,4.2012,2.20226,5.83678,5.83678,0,0,0,.72115-.04629L18.89258,43.85588c-.01575.08286.08347.1597.20973.16244l1.43594.03094c.10256.00224.188-.046.2008-.1133l3.74617-19.69313C24.501,24.15994,24.40178,24.08309,24.27552,24.08036Z"/><path d="M15.63573,85.07787h.86991a.20061.20061,0,0,0,.2-.2V62.50005a5.90783,5.90783,0,0,0,5.10949-.44c2.56975-1.33983,3.94962-3.79961,3.0697-5.49946-.88992-1.68984-3.68964-1.97979-6.2594-.64a5.45171,5.45171,0,0,0-3.18969,4.59959V84.87788A.20061.20061,0,0,0,15.63573,85.07787Zm3.70966-27.90731a4.66282,4.66282,0,0,1,2.56975-.5699,1.76838,1.76838,0,0,1,1.42986.78991c.5199.98989-.45,2.54974-2.10978,3.40964a4.83813,4.83813,0,0,1-2.21982.58,2.76149,2.76149,0,0,1-1.1399-.21995l-.01-.01a1.59377,1.59377,0,0,1-.75988-1.0699C17.04562,59.09041,17.98553,57.88051,19.34539,57.17056Z"/></svg>