<svg xmlns="http://www.w3.org/2000/svg" viewBox="0 0 100 100"><g style="opacity:0.2"><rect y="67.32255" width="100" height="1.13511"/><rect y="58.37315" width="100" height="1.13511"/><rect y="49.42375" width="100" height="1.13511"/><rect y="40.47435" width="100" height="1.13511"/><rect y="31.52491" width="100" height="1.13511"/><rect x="81.53363" y="49.42373" width="35.79763" height="1.13511" transform="translate(49.44116 149.42373) rotate(-90)"/></g><path d="M45.53518,40.62985a4.83335,4.83335,0,0,1,1.23332,1.1393s2.47064,3.2471,2.50249,3.289c.26867.35308.72078.697.35,1.17341-.17471.22449-.43408.38343-.62336.60292q-.259.30042-.50528.61154a8.02979,8.02979,0,0,0-1.03011,1.56291,3.69517,3.69517,0,0,0-.17482.62125,4.37283,4.37283,0,0,0-.1249,1.40228,3.60321,3.60321,0,0,0,.27743,1.22937,5.48662,5.48662,0,0,0,.70959,1.0144c.22517.2992.45468.59587.681.89443l.501.66079c.12253.16162.4043.41183.43246.618a.42944.42944,0,0,1-.01043.14764.86068.86068,0,0,1-.653.66331.13624.13624,0,0,1-.06616.00253.14753.14753,0,0,1-.05438-.03532,3.34176,3.34176,0,0,0-2.5924-.92249c-.34145.057-.53484.37225-.68162.65755a2.48658,2.48658,0,0,0,.00463,2.03325,15.83371,15.83371,0,0,0,1.11091,2.00918.18676.18676,0,0,1,.02775.06733c.03.23127-.45365.38294-.61033.41611-.15563.03295-.37929-.23609-.49086-.33079q-.26355-.22367-.51507-.461a11.63063,11.63063,0,0,1-.92968-.98439,4.16216,4.16216,0,0,1-1.14713-2.19617,4.32869,4.32869,0,0,1,.02677-1.04178,2.4908,2.4908,0,0,1,.76227-1.4565,2.43064,2.43064,0,0,1,.94621-.51311,2.6324,2.6324,0,0,1,.53427-.09515,2.21476,2.21476,0,0,1,.72006.07828c.20137.04692.54824.08182.59546-.186a1.22051,1.22051,0,0,0-.28835-.739A24.37288,24.37288,0,0,0,45.022,50.45779c-.201-.26384-.40775-.52494-.63379-.768a2.2267,2.2267,0,0,0-.66678-.5711,1.31409,1.31409,0,0,1-.1737-.08137c-.19388-.12419-.12234-.47512-.07693-.66445a1.04321,1.04321,0,0,1,.36634-.55411,12.30987,12.30987,0,0,0,1.92492-2.02308c.41732-.56128.9993-1.3795.6536-2.108a10.09756,10.09756,0,0,0-1.374-2.17272c-.1112-.13081-.22811-.2568-.35162-.376-.13559-.13092-.006-.38611.11-.50607a.536.536,0,0,1,.68967-.0322Z"/><path d="M87.53328,44.30128a5.90861,5.90861,0,0,1-5.11.44v23.29l-19.26-5.37v-24.52h.01a.48615.48615,0,0,1-.01-.12,4.22124,4.22124,0,0,1,.31-1.48,5.9535,5.9535,0,0,1,2.88-3.04,6.449,6.449,0,0,1,4.35-.71,2.167,2.167,0,0,1,.3.08,2.51545,2.51545,0,0,1,.41.17,1.74153,1.74153,0,0,1,.33.18,2.03841,2.03841,0,0,1,.4.31,2.09692,2.09692,0,0,1,.24.27,1.98281,1.98281,0,0,1,.22.34c.69,1.32.02,3.09-1.52,4.45-.15.12-.31.25-.48.38-.11.08-.22.16-.34.24q-.345.225-.72.42005a7.13534,7.13534,0,0,1-2.04.72c-.19.04-.37.06-.55.08a.42.42,0,0,1-.16.01,3.373,3.373,0,0,1-.44.03,4.95937,4.95937,0,0,1-.55-.02c-.01-.00995-.01-.00995-.02,0-.16-.02-.3-.05-.45-.06994-.13995-.04-.28-.07-.41-.11005h-.01a2.06355,2.06355,0,0,1-.34-.15v.01a.84027.84027,0,0,1-.14-.06006v18.44l16.72,4.66v-20.41a5.35682,5.35682,0,0,1,2.8-4.37994c.13-.08.26-.15.39-.22,2.57-1.34,5.37-1.05,6.26.64C91.47329,40.50129,90.10329,42.96125,87.53328,44.30128Z"/><polygon points="19.599 49.36 19.599 46.083 12.181 46.083 12.181 49.36 8 49.36 8 50.559 23.78 50.559 23.78 49.36 19.599 49.36"/><path d="M10.73828,81.7793l2.42432-.41016h.43945l-.32959,1.19336a6.1186,6.1186,0,0,1,1.25977-.94824,2.15719,2.15719,0,0,1,.97412-.24512,1.22191,1.22191,0,0,1,1.062.53027,2.20493,2.20493,0,0,1,.37353,1.29981,5.42358,5.42358,0,0,1-1.45751,3.72851,3.75617,3.75617,0,0,1-2.8125,1.43555,1.84311,1.84311,0,0,1-.46143-.05078,3.10809,3.10809,0,0,1-.53467-.22754l-.38086,1.31836a4.3629,4.3629,0,0,0-.20508,1.09082.45753.45753,0,0,0,.16114.37012,1.79284,1.79284,0,0,0,.75439.23144l-.06592.27051H7.999l.07325-.27051a1.17228,1.17228,0,0,0,.78027-.30078,2.82261,2.82261,0,0,0,.582-1.23047l1.78711-6.16015a4.14275,4.14275,0,0,0,.19775-.97364.35857.35857,0,0,0-.05859-.209.32406.32406,0,0,0-.17578-.12012,2.27224,2.27224,0,0,0-.52735-.03711Zm1.14258,5.625a1.61764,1.61764,0,0,0,.39551.47949.70919.70919,0,0,0,.41015.12012.90627.90627,0,0,0,.458-.12793,2.36027,2.36027,0,0,0,.55274-.5166,4.95019,4.95019,0,0,0,.63378-.9961,6.85168,6.85168,0,0,0,.66993-2.85547,1.3357,1.3357,0,0,0-.20118-.82031.60331.60331,0,0,0-.4873-.25684.94737.94737,0,0,0-.4834.13184,3.32884,3.32884,0,0,0-.77637.71094Z"/></svg>