<svg xmlns="http://www.w3.org/2000/svg" viewBox="0 0 512 512" style="enable-background:new 0 0 512 512;"><path d="M443.9,91.5c-8.3-8.3-21.9-8.3-30.2,0s-8.3,21.9,0,30.2c74,74.2,74,194.4,0,268.6c-8.3,8.3-8.3,21.9,0,30.2c8.3,8.3,21.9,8.3,30.2,0C534.6,329.6,534.6,182.4,443.9,91.5z"/><path d="M386.1,155.5c-8.3-8.4-21.9-8.4-30.2-0.1c-8.4,8.3-8.4,21.9-0.1,30.2c38.8,38.8,38.8,101.7,0,140.5c-8.3,8.4-8.3,21.9,0.1,30.2c8.4,8.3,21.9,8.3,30.2-0.1l0,0C441.5,300.9,441.5,211.1,386.1,155.5z"/><path d="M294.8,4.3C230,16.5,172.3,53.1,133.7,106.7h-27C47.8,106.8,0.1,154.5,0,213.3v85.3c0.1,58.9,47.8,106.6,106.7,106.7h27c38.6,53.5,96.3,90.2,161.2,102.4c1.3,0.2,2.6,0.4,3.9,0.4c11.8,0,21.3-9.6,21.3-21.3V25.3c0-11.8-9.5-21.4-21.3-21.4C297.4,3.9,296.1,4,294.8,4.3z M277.3,459.4c-47.1-15-87.5-45.7-114.6-87c-3.9-6-10.6-9.7-17.9-9.7h-38.2c-35.3,0-64-28.7-64-64v-85.3c0-35.3,28.7-64,64-64h38.4c7.2,0,13.9-3.6,17.9-9.7c27-41.3,67.4-72,114.4-87.1V459.4z"/></svg>