<svg xmlns="http://www.w3.org/2000/svg" viewBox="0 0 288 288"><g style="opacity:0.5"><path d="M288,177.3L288,177.3c-3-0.8-6.3-1.6-9.8-2.7c-6.1-1.8-12.9-4-20.4-6.3s-15.6-4.6-24.4-6.5c-4.4-1-9-1.4-13.6-2.2c-4.8-0.5-9.6-0.5-14.3,0.1c-9.8,0.9-19.2,5.1-27.8,10.6s-16.8,12.1-25.5,17.8s-18,10.8-28.1,13.3c-9.8,2.6-20.1,2.8-30,0.5c-9.6-2.1-18.3-6.1-26.2-10.3s-15.1-8.7-21.8-12.7c-6.7-4.1-12.9-7.7-18.5-10.6c-4.8-2.6-9.8-4.9-14.9-7c-4.2-1.7-7.6-2.8-9.9-3.5s-3.6-1-3.6-1l0.2-0.7c0,0,1.2,0.4,3.6,1c2.3,0.7,5.8,1.8,10,3.6c5.1,2.1,10.1,4.4,14.9,7c5.6,3,11.8,6.6,18.5,10.7c6.7,4,13.9,8.6,21.8,12.8s16.5,8.1,26.1,10.3c9.8,2.3,20,2.1,29.7-0.5c10-2.4,19.2-7.5,27.9-13.2s16.9-12.2,25.5-17.8c8.7-5.5,18.2-9.6,28-10.6c4.8-0.5,9.6-0.5,14.4,0c4.7,0.8,9.2,1.2,13.6,2.2c8.8,1.9,16.9,4.2,24.4,6.5c7.5,2.3,14.3,4.6,20.4,6.4C281.7,175.6,285,176.5,288,177.3z"/><path d="M257.9,172.4c7.5,1.9,14.3,3.7,20.4,5.3C272.2,176.1,265.4,174.4,257.9,172.4c-7.5-1.8-15.6-3.7-24.4-5c-4.3-0.8-8.9-0.9-13.5-1.4c-4.7-0.2-9.5,0-14.1,0.8c-9.6,1.4-18.8,5.6-27.3,11.1c-8.6,5.4-16.6,11.8-25.3,17.4c-2.1,1.4-4.4,2.7-6.6,4.1l-6.9,3.5l-3.4,1.7c-1.2,0.5-2.4,0.9-3.6,1.3c-2.4,0.8-4.8,1.8-7.2,2.5c-9.7,2.6-19.7,3.1-29.6,1.7c-9.6-1.3-18.4-4.8-26.6-8.2c-8.1-3.5-15.6-7.4-22.4-10.9c-3.4-1.7-6.7-3.4-9.9-5c-3.2-1.5-6.2-2.9-9-4.3c-2.9-1.2-5.6-2.3-8.1-3.4c-2.5-1-4.9-1.7-7-2.5c-3.3-1.2-6.6-2.1-10-2.9c-2.3-0.6-3.6-0.9-3.6-0.9v-1c0,0,1.2,0.3,3.6,1c3.4,0.8,6.7,1.8,10,3c2.1,0.8,4.5,1.5,7,2.6s5.2,2.2,8.1,3.4c2.8,1.3,5.9,2.8,9,4.3c3.1,1.6,6.4,3.3,9.9,5c6.9,3.5,14.3,7.4,22.4,10.9c8.1,3.4,16.9,6.8,26.4,8.2c9.8,1.4,19.8,0.9,29.4-1.6c2.4-0.7,4.8-1.7,7.2-2.5c1.2-0.4,2.4-0.8,3.6-1.3l3.4-1.7l6.9-3.5c2.2-1.3,4.4-2.6,6.6-4c8.7-5.5,16.8-11.9,25.4-17.3c8.5-5.5,17.9-9.6,27.5-11.1c4.7-0.7,9.5-1,14.2-0.7c4.6,0.5,9.2,0.7,13.5,1.5C242.3,168.6,250.4,170.4,257.9,172.4z"/><path d="M278.3,177.7c3.5,0.9,6.7,1.7,9.7,2.4l0,0C285,179.4,281.8,178.6,278.3,177.7z"/><path d="M278.1,180c3.6,0.8,6.9,1.5,9.9,2.1l0,0C285,181.5,281.6,180.9,278.1,180c-6.2-1.1-13-2.8-20.5-4.2c-3.7-0.8-7.7-1.5-11.7-2c-4.1-0.7-8.3-1.1-12.6-1.4c-1.1-0.1-2.2-0.2-3.3-0.3h-3.3c-2.2,0-4.5,0-6.8,0.1s-4.6,0.6-6.9,0.8c-2.3,0.4-4.7,0.4-7,1.2c-9.3,2.1-18.3,6.5-26.8,11.6c-8.5,5.3-16.7,11.3-25.4,16.7c-4.3,2.7-8.8,5.2-13.4,7.3c-4.5,2.4-9.3,3.9-14.1,5.5c-9.5,2.6-19.4,3.5-29.2,2.7c-9.1-1.1-18.1-3.2-26.8-6.3c-8.3-2.9-15.9-6.1-23-9c-7-3-13.5-5.6-19.3-7.8c-5.8-2.1-10.9-3.8-15.2-5c-4.2-1.3-7.7-1.9-10-2.4s-3.6-0.8-3.6-0.8l0.1-0.8c0,0,1.2,0.3,3.6,0.8c2.3,0.6,5.8,1.1,10.1,2.5c4.3,1.2,9.5,2.9,15.3,5c5.8,2.2,12.3,4.9,19.3,7.8c7,3,14.7,6.2,22.9,9.1c8.6,3.1,17.6,5.2,26.7,6.3c9.8,0.8,19.6,0,29-2.6c4.7-1.6,9.6-3.1,14-5.5c4.6-2.2,9.1-4.6,13.4-7.3c8.6-5.3,16.9-11.3,25.4-16.6c8.6-5.1,17.6-9.5,27-11.6c2.3-0.8,4.7-0.8,7-1.2c2.3-0.3,4.6-0.7,6.9-0.8H230c1.1,0.1,2.2,0.2,3.3,0.3c4.4,0.4,8.6,0.7,12.7,1.5c4.1,0.6,8,1.3,11.7,2.1C265.2,177.1,272,178.8,278.1,180z"/><path d="M278,182.9c3.6,0.6,7,1.1,10,1.6v0.1C284.9,184.1,281.6,183.6,278,182.9c-6.2-0.8-13-2.1-20.5-3c-1.9-0.3-3.8-0.5-5.7-0.8c-2-0.2-4-0.4-6-0.6s-4.1-0.4-6.2-0.5c-2.1-0.1-4.2-0.1-6.4-0.2c-4.3-0.3-8.8,0.3-13.3,0.5c-2.3,0.3-4.5,0.6-6.8,1.1c-2.3,0.4-4.6,0.9-6.9,1.5c-9.1,2.6-17.9,7-26.4,12.2c-8.4,5.3-16.6,11.1-25.2,16.5c-2.2,1.3-4.4,2.5-6.6,3.7l-3.3,1.9c-1.1,0.6-2.3,1.1-3.4,1.6c-2.3,1-4.6,2.1-6.9,3.1c-2.4,0.8-4.8,1.5-7.1,2.3c-9.4,2.6-19.2,3.8-29,3.3c-9.1-0.6-18.1-2.1-27-4.4c-8.4-2.2-16.3-4.7-23.5-7c-14.4-4.7-26.5-8.3-35.1-10.1c-4.3-1-7.7-1.5-10.1-1.9c-2.3-0.4-3.6-0.6-3.6-0.6l0.3-0.8c0,0,1.2,0.2,3.6,0.6c2.3,0.4,5.8,0.8,10.1,1.9c8.7,1.8,20.8,5.4,35.2,10.2c7.2,2.4,15,4.8,23.4,7c8.8,2.3,17.8,3.8,26.8,4.4c9.7,0.5,19.4-0.6,28.8-3.2c2.4-0.8,4.7-1.5,7.1-2.3c2.3-1,4.6-2,6.9-3c1.1-0.5,2.3-1,3.4-1.6l3.3-1.8c2.2-1.2,4.4-2.4,6.6-3.7c8.6-5.3,16.9-11.1,25.3-16.4c8.5-5.2,17.3-9.6,26.5-12.1c2.3-0.6,4.6-1.1,6.9-1.5c2.3-0.5,4.5-0.9,6.8-1.1c4.5-0.2,9-0.8,13.3-0.5c2.2,0.1,4.3,0.1,6.4,0.2c2.1,0.1,4.2,0.4,6.2,0.5l6,0.6c1.9,0.3,3.9,0.5,5.7,0.8C265.1,180.7,271.9,181.9,278,182.9z"/><path d="M277.9,186.7c3.7,0.4,7,0.8,10.1,1.1l0,0C284.9,187.5,281.5,187.2,277.9,186.7c-6.1-0.5-12.9-1.4-20.4-1.9c-3.7-0.3-7.7-0.6-11.7-0.7c-2-0.1-4.1-0.2-6.2-0.2c-2.1,0-4.2,0.1-6.4,0.1c-8.6,0.2-17.8,0.7-26.8,3.4s-17.7,7.1-26,12.5c-8.3,5.3-16.4,11.2-25,16.4s-17.7,9.7-27.3,12.2c-9.4,2.5-19,3.8-28.7,3.7c-18.9-0.3-36.2-4.1-50.9-7.2c-14.7-3.2-27-5.7-35.7-6.8c-4.3-0.7-7.8-1-10.1-1.2s-3.6-0.3-3.6-0.3l0.2-1.1c0,0,1.2,0.1,3.6,0.4c2.3,0.2,5.8,0.5,10.1,1.2c8.7,1.2,21,3.7,35.7,7c14.7,3.1,31.9,7,50.7,7.3c9.6,0.1,19.3-1.1,28.6-3.6c9.5-2.5,18.7-6.9,27.2-12.1c8.6-5.1,16.7-11.1,25.1-16.4c8.3-5.3,17.1-9.8,26.1-12.4c4.4-1.3,9-2.1,13.6-2.6c4.5-0.3,8.9-0.9,13.2-0.8c2.2,0,4.3,0,6.4-0.1c2.1,0.1,4.2,0.2,6.2,0.3c4.1,0.1,8,0.4,11.7,0.8C265,185.2,271.9,186,277.9,186.7z"/></g><path d="M19.3,167.8L19.3,167.8l7-37.5c0-0.2-0.1-0.3-0.2-0.4l0,0l-1.3-0.3c-0.2,0-0.3,0.1-0.4,0.2l0,0L18,164.3c-1.8-1.4-4.9-1.7-8-0.8c-4.4,1.3-7.2,4.7-6.3,7.6c0.9,2.9,5.1,4.1,9.5,2.8C16.7,172.9,18.9,170.3,19.3,167.8z"/><path d="M173.3,196.4c0,0.1,0,0.2,0,0.3c0.4,2.3-0.5,4.7-1.6,6.7c-0.9,1.6-1.4,2.2-1.1,3.7c0,0.1,0.1,0.2,0.1,0.3c0,0,0,0,0,0.1c0,0,0,0,0,0.1l0,0c-0.1,0.2-0.2,0.4-0.4,0.4c-0.1,0-0.1,0.1-0.2,0.1c-0.2,0-0.2-0.1-0.3-0.2l-9.1-17.1c-0.7-1.5-0.5-3.2,0.5-4.4c1.3-1.9,3.4-2.8,4.7-1.9c1.3,0.9,1.2,3.1-0.1,5c-0.9,1.4-2.3,2.2-3.4,2.2L169,204c0.3-0.3,0.5-0.6,0.9-0.9c2.1-2.2,3.2-4.1,2.2-6.8c-0.8-2.4-2.4-4.5-4.4-6.1c0,0-1.6-0.9-0.8-1.3c0.1-0.1,0.7,0.3,0.8,0.4c0.7,0.4,1.3,0.8,2,1.3C171.5,192,172.8,194.1,173.3,196.4z"/><path d="M276,173.5l-1.2,8.2l0,0c0,0,0,0,0,0.1c-0.1,0.2-0.1,0.3-0.2,0.5c-0.2,0.4-0.6,0.8-1.1,0.9c-0.5,0.2-1,0.2-1.5,0.1c0,0-0.1,0-0.1-0.1c-0.1,0-0.1-0.1-0.1-0.1s-0.1-0.1-0.1-0.1c-0.1-0.1-0.1-0.1-0.1-0.1c0,0-0.1-0.1-0.1-0.1c0-0.1-0.1-0.1-0.1-0.1c-0.1-0.6,0.2-1.1,0.7-1.4c0.1,0,0.1-0.1,0.2-0.1s0.1-0.1,0.1-0.1c0.1-0.1,0.2-0.1,0.3-0.1c0.3-0.1,0.5-0.2,0.7-0.2c0.1,0,0.1,0,0.2,0l0.1,0c0.1,0,0.1,0,0.1,0s0.1,0,0.2,0.1l0,0c0.1,0,0.1,0.1,0.1,0.1c0.1,0,0.1,0.1,0.1,0.1l0,0c0.1,0,0.1,0.1,0.1,0.1l0,0c0,0,0,0,0.1,0l0.9-6.2l-5.6-0.8l-1,6.8c-0.1,0.6-0.6,1.1-1.1,1.3c-0.1,0-0.1,0.1-0.1,0.1c-0.9,0.3-1.9,0.1-2.1-0.5c-0.2-0.6,0.3-1.3,1.3-1.7c0.6-0.2,1.2-0.2,1.7,0.1l1.1-7.6L276,173.5z"/><path d="M68.6,189.1c0.6,0.5,1.1,1.2,1.5,1.9c0,0,2.9,5.1,2.9,5.2c0.3,0.6,0.9,1.1,0.3,1.8c-0.3,0.3-0.7,0.5-1,0.7c-0.3,0.3-0.6,0.5-0.8,0.8c-0.7,0.6-1.3,1.3-1.8,2c-0.1,0.3-0.3,0.6-0.4,0.9c-0.3,0.6-0.4,1.3-0.5,2c-0.1,0.6,0,1.2,0.2,1.8s0.5,1.1,0.8,1.6s0.5,0.9,0.8,1.4c0.2,0.3,0.4,0.7,0.6,1c0.1,0.3,0.5,0.7,0.5,1c0,0.1,0,0.1,0,0.2c-0.2,0.5-0.6,0.8-1.1,0.8h-0.1c0,0-0.1,0-0.1-0.1c-0.9-1.1-2.1-1.8-3.5-1.8c-0.5,0.1-0.9,0.4-1.1,0.8c-0.5,0.9-0.7,1.9-0.4,2.9c0.3,1.1,0.7,2.1,1.2,3.1v0.1c0,0.3-0.7,0.5-1,0.5c-0.2,0-0.5-0.4-0.6-0.6c-0.2-0.2-0.4-0.5-0.6-0.8c-0.4-0.5-0.8-1-1.1-1.6c-0.7-1-1.2-2.2-1.2-3.4c0-0.5,0.1-1,0.2-1.5c0.2-0.8,0.7-1.5,1.4-1.9c0.4-0.3,0.9-0.5,1.5-0.5c0.3,0,0.5,0,0.8,0c0.4,0,0.7,0.1,1,0.3c0.3,0.1,0.8,0.2,0.9-0.1c0-0.4-0.1-0.8-0.3-1.1c-0.5-1.1-1-2.2-1.6-3.3c-0.2-0.4-0.5-0.8-0.8-1.2c-0.2-0.4-0.5-0.7-0.8-1c-0.1,0-0.2-0.1-0.2-0.2c-0.3-0.2-0.1-0.7,0-1s0.4-0.6,0.6-0.7c1.1-0.7,2.2-1.6,3.2-2.5c0.7-0.7,1.7-1.8,1.4-2.9c-0.4-1.2-0.9-2.3-1.5-3.4c-0.1-0.2-0.3-0.4-0.4-0.6c-0.2-0.2,0.1-0.6,0.3-0.7C67.8,188.7,68.3,188.8,68.6,189.1L68.6,189.1z"/><ellipse cx="130.8" cy="203.2" rx="1.8" ry="1.8"/><circle cx="132.2" cy="208.3" r="1.8"/><path d="M125.3,203.7c-1.3-0.9-2.9-1.3-4.5-1.2c-0.4,0-0.8,0.1-1.2,0.2l0,0l0,0c-0.1,0-0.3,0.1-0.4,0.1l0,0l0,0h-0.1c-0.4,0.1-0.7,0.3-1.1,0.5c-0.1,0-0.2,0.1-0.2,0.1c-0.2,0.1-0.4,0.3-0.6,0.4c-1.7,1.3-2.6,3.4-2.5,5.5c0.1,1,0.7,1.8,1.6,2.3c1.3,0.7,2.9,0.3,3.6-1s0.3-2.9-1-3.6c-0.6-0.3-1.3-0.4-1.9-0.3c0.3-0.6,0.7-1.1,1.3-1.5c0.4-0.3,0.8-0.6,1.3-0.8c0,0,0.1,0,0.2-0.1c2.7-0.8,5.8,1.8,6.2,4.5c0.1,0.6,0.1,1.1,0.2,1.7c0.1,2.4-0.4,4.9-1.6,7c-0.4,0.7-1,1.3-1.6,1.8c-0.3,0.2-0.6,0.5-0.8,0.7c-0.4,0.4-0.5,1.3,0.3,1.2c0.1,0,0.3-0.1,0.4-0.2c0.8-0.5,1.5-1.2,2.1-1.9c0.2-0.2,0.4-0.5,0.6-0.7c2.2-2.8,3.3-6.3,2.8-9.9C128.1,206.9,127,204.9,125.3,203.7z"/><polygon points="215.3,171.2 215,168.2 208.2,169.1 208.6,172 204.8,172.5 204.9,173.6 219.3,171.8 219.1,170.7 "/><path d="M153,214c-2.3,1.1-4.8,0.6-5.6-1s0.4-3.9,2.8-5s4.8-0.6,5.6,1S155.3,212.9,153,214z M150.7,209c-1.7,0.8-2.7,2.4-2.2,3.4s2.4,1.3,4.1,0.5s2.7-2.4,2.2-3.4S152.4,208.2,150.7,209L150.7,209z"/><path d="M238.7,168.8l-0.2-0.8c0-0.1-0.1-0.2-0.1-0.2l-1.6,0.4v-2.9l1.8-0.4c0,0,0-0.1,0-0.2l-0.2-0.8c0-0.1-0.1-0.2-0.1-0.2l-1.4,0.3v-3c0-0.1,0-0.1-0.1-0.1l0,0h-0.4c-0.1,0-0.1,0-0.1,0.1l0,0v3.1l-2.7,0.6V162c0-0.1,0-0.1-0.1-0.1l0,0h-0.4c-0.1,0-0.1,0-0.1,0.1l0,0v2.9l-1.9,0.5c0,0,0,0.1,0,0.2l0.2,0.8c0,0.1,0.1,0.2,0.1,0.2l1.6-0.4v2.9l-1.8,0.4c0,0,0,0.1,0,0.2l0.2,0.8c0,0.1,0.1,0.2,0.1,0.2l1.4-0.3v3c0,0.1,0,0.1,0.1,0.1l0,0h0.4c0.1,0,0.1,0,0.1-0.1l0,0v-3.1l2.7-0.6v2.7c0,0.1,0,0.1,0.1,0.1l0,0h0.4c0.1,0,0.1,0,0.1-0.1l0,0v-2.9l1.9-0.5C238.7,169,238.7,168.9,238.7,168.8z M236.1,168.4l-2.7,0.7v-2.9l2.7-0.7V168.4z"/><path d="M46.8,207c0,0-3.4,4.2-6,5.4c0,0-1,0.2-0.3-1.2c0,0,7.7-6.5,4.5-14.4c0,0-3.3-5.6-7.6-6.3l-2.8,22.1c-0.6,2.8-2.6,5.2-5.4,6c-3.9,1.5-7.9,0.5-8.9-2c-1-2.6,1.5-5.9,5.4-7.3c2.4-1.1,5.1-0.9,7.4,0.3l4-31.7c0-0.3,0.1-0.6,0.4-0.6c0.1,0,0.2,0,0.3,0c0.5,0,0.9,0.3,1.2,0.7l0,0c0,0.3,0,0.5,0,0.8s-0.3,2.3-0.3,2.6c0,0.7,0.1,1.3,0.2,2c0.3,1.6,1.2,3,2.5,4C41.4,187.1,54.6,197,46.8,207z"/><path d="M195.2,188.4l0.6-0.2c0.1,0,0.1-0.1,0.1-0.2l-4.9-15c1.3,0.1,2.5-0.5,3.4-1.4c1.4-1.5,1.8-3.4,0.9-4.4c-1-0.9-2.9-0.5-4.4,0.9c-1.1,1-1.5,2.4-1.2,3.8l5.3,16.4C195,188.4,195.1,188.5,195.2,188.4z M191.6,168.8c0.4-0.5,1-0.8,1.6-0.9c0.4-0.1,0.8,0,1.1,0.2c0.6,0.6,0.2,1.8-0.7,2.8c-0.4,0.4-0.9,0.7-1.4,0.9c-0.3,0.1-0.5,0.1-0.8,0.1l0,0c-0.3-0.1-0.6-0.3-0.7-0.6C190.5,170.6,190.9,169.6,191.6,168.8L191.6,168.8z"/><path d="M262.4,179.1c-0.4-0.1-0.8,0-1.1,0.2l0.4-3.1c0,0,0-0.1-0.1-0.1h-0.2c0,0-0.1,0-0.1,0.1l-0.8,5.9c0,0,0,0,0,0.1v0.1v0.1l0,0l0,0h0.1c0.1,0,0.1-0.1,0.2-0.1c0.1-0.1,0.3-0.1,0.3-0.1s0.1-0.1,0.2-0.1c0.1,0,0.1-0.1,0.1-0.1c0.1-0.1,0.2-0.1,0.3-0.2c0.1-0.1,0.2-0.1,0.3-0.2s0.1-0.1,0.2-0.2c0.1-0.1,0.1-0.1,0.2-0.2s0.1-0.1,0.1-0.2c0.1-0.1,0.1-0.1,0.1-0.2c0-0.1,0.1-0.1,0.1-0.2s0.1-0.1,0.1-0.1s0-0.1,0.1-0.1v-0.1v-0.1l0,0C263,179.7,262.8,179.3,262.4,179.1z M262.5,180c0,0-0.2,1.1-1.6,1.8l0.3-1.9c0.3-0.3,0.7-0.5,1.1-0.5C262.5,179.5,262.6,179.8,262.5,180z"/><path d="M156.2,226.9l0.8,2.5c0.3,0.9,0.5,1.8,0.6,2.7c0.1,0.5,0,1-0.2,1.5c-0.2,0.4-0.5,0.8-0.9,1c-0.2,0.1-0.4,0.2-0.7,0.2c-0.2,0-0.3-0.1-0.4-0.2c-0.1-0.1-0.1-0.3-0.1-0.4c0.1-0.2,0.2-0.3,0.3-0.4c0.1-0.1,0.3-0.1,0.4-0.1c0.1,0,0.2,0.1,0.3,0.2c0.1,0.1,0.1,0.2,0.1,0.3v0.1l0,0h0.1c0.1-0.1,0.2-0.1,0.2-0.2c0.1-0.2,0.1-0.5,0-0.8c0-0.2-0.2-0.6-0.4-1.3l-1.4-4.3l-0.6,0.4l-0.2-0.6c0.2-0.1,0.3-0.2,0.4-0.4c0.1-0.2,0.1-0.4,0.1-0.6c-0.1-0.7,0-1.4,0.2-2c0.2-0.5,0.5-0.9,1-1.2c0.2-0.2,0.5-0.2,0.8-0.2c0.2,0,0.4,0.1,0.5,0.3c0.1,0.1,0.1,0.3,0.1,0.5c0,0.1-0.1,0.3-0.2,0.4c-0.1,0.1-0.2,0.1-0.4,0.1c-0.1,0-0.2-0.1-0.3-0.2c-0.1-0.1-0.1-0.2-0.1-0.3s0-0.2,0-0.2l-0.1-0.1H156c-0.2,0.2-0.3,0.4-0.3,0.7c-0.1,0.7,0,1.5,0.3,2.2l0.7-0.4l0.2,0.6L156.2,226.9z"/><path d="M159.2,225l0.8,2.5c0.3,0.9,0.5,1.8,0.6,2.7c0.1,0.5,0,1-0.2,1.5c-0.2,0.4-0.5,0.8-0.9,1c-0.2,0.1-0.4,0.2-0.7,0.2c-0.2,0-0.3-0.1-0.4-0.2c-0.1-0.1-0.1-0.3-0.1-0.4c0.1-0.2,0.2-0.3,0.3-0.4c0.1-0.1,0.3-0.1,0.4-0.1c0.1,0,0.2,0.1,0.3,0.2c0.1,0.1,0.1,0.2,0.1,0.3v0.1l0,0h0.1c0.1-0.1,0.2-0.1,0.2-0.2c0.1-0.2,0.1-0.5,0-0.8c0-0.2-0.2-0.6-0.4-1.3l-1.4-4.3l-0.6,0.4l-0.2-0.6c0.2-0.1,0.3-0.2,0.4-0.4c0.1-0.2,0.1-0.4,0.1-0.6c-0.1-0.7,0-1.4,0.2-2c0.2-0.5,0.5-0.9,1-1.2c0.2-0.2,0.5-0.2,0.8-0.2c0.2,0,0.4,0.1,0.5,0.3c0.1,0.1,0.1,0.3,0.1,0.5c0,0.1-0.1,0.3-0.2,0.4c-0.1,0.1-0.2,0.1-0.4,0.1c-0.1,0-0.2-0.1-0.3-0.2c-0.1-0.1-0.1-0.2-0.1-0.3s0-0.2,0-0.2l-0.1-0.1H159c-0.2,0.2-0.3,0.4-0.3,0.7c-0.1,0.7,0,1.5,0.3,2.2l0.7-0.4l0.2,0.6L159.2,225z"/><path d="M84.8,227.2c1.3-0.7,2.9-0.7,4.2,0l1.4-19.2l15.6,5.6l-1.5,20.2l0,0v0.1c0,0.4-0.2,0.8-0.3,1.2c-0.5,1.1-1.5,1.9-2.6,2.3c-1.1,0.5-2.4,0.6-3.6,0.3c-0.1,0-0.2-0.1-0.2-0.1c-0.1,0-0.2-0.1-0.3-0.2c-0.1,0-0.2-0.1-0.3-0.2c-0.1-0.1-0.2-0.2-0.3-0.3c-0.1-0.1-0.1-0.2-0.2-0.2c-0.1-0.1-0.1-0.2-0.2-0.3c-0.5-1.1,0.2-2.6,1.5-3.6c0.1-0.1,0.3-0.2,0.4-0.3s0.2-0.1,0.3-0.2c0.2-0.1,0.4-0.2,0.6-0.3c0.5-0.2,1.1-0.4,1.7-0.5c0.2,0,0.3,0,0.5,0h0.1c0.1,0,0.2,0,0.4,0c0.2,0,0.3,0,0.5,0.1l0,0c0.1,0,0.2,0.1,0.4,0.1c0.1,0,0.2,0.1,0.3,0.1l0,0c0.1,0,0.2,0.1,0.3,0.1l0,0c0,0,0.1,0,0.1,0.1l1.1-15.2L91.3,212L90,228.8c-0.2,1.5-1.2,2.8-2.6,3.4c-0.1,0.1-0.2,0.1-0.3,0.2c-2.2,0.9-4.5,0.5-5.1-0.9C81.3,230.1,82.6,228.1,84.8,227.2z"/><circle cx="189.3" cy="159.9" r="0.9"/><path d="M187.7,155.6c-0.1,0-0.2,0.1-0.4,0.2c-0.1,0.1-0.2,0.1-0.3,0.2c-0.1,0.1-0.2,0.1-0.3,0.2c-0.1,0.1-0.2,0.2-0.3,0.3s-0.2,0.2-0.3,0.3s-0.2,0.2-0.2,0.3c-0.1,0.1-0.1,0.2-0.2,0.3c-0.1,0.1-0.1,0.2-0.2,0.3c-0.1,0.1-0.1,0.2-0.2,0.4c0,0.1-0.1,0.2-0.1,0.4c0,0.1-0.1,0.2-0.1,0.4c0,0.1-0.1,0.2-0.1,0.4c0,0.1,0,0.2,0,0.4c0,0.1,0,0.2,0,0.4c0,0.1,0,0.2,0,0.4c0,0.1,0,0.2,0,0.3s0,0.2,0.1,0.3v0.1c0,0,0,0.1,0.1,0.1c0,0,0,0,0.1,0h0.1c0,0,0.1,0,0.1-0.1c0,0,0,0,0-0.1l0,0c0-0.1,0-0.1,0-0.2c0-0.1,0-0.1,0-0.2c0-0.1,0-0.2,0-0.3s0-0.2,0-0.4c0-0.1,0-0.2,0-0.4c0-0.1,0.1-0.2,0.1-0.4c0-0.1,0.1-0.2,0.1-0.4c0-0.1,0.1-0.2,0.2-0.4c0.1-0.1,0.1-0.2,0.2-0.4c0.1-0.1,0.1-0.2,0.2-0.3c0.1-0.1,0.2-0.2,0.2-0.3c0.1-0.1,0.2-0.2,0.3-0.3s0.2-0.2,0.3-0.3s0.2-0.2,0.3-0.2c0.1-0.1,0.2-0.1,0.3-0.2c0.1,0,0.2-0.1,0.3-0.1c0.2-0.1,0.4-0.1,0.6-0.2c0.2,0,0.4,0,0.7,0c0.2,0,0.5,0,0.7,0.1c0.5,0.1,0.9,0.2,1.3,0.4c0.2,0.1,0.4,0.2,0.6,0.3c0.2,0.1,0.3,0.3,0.5,0.4c0.1,0.1,0.3,0.3,0.4,0.5c0,0.1,0.1,0.1,0.1,0.2c0,0,0,0.1,0.1,0.1l0.1,0.1h0.1c0,0,0.1,0,0.1-0.1c0,0,0,0,0.1-0.1v-0.1c0-0.1-0.1-0.1-0.1-0.2c0,0,0-0.1-0.1-0.1l-0.1-0.1c-0.1-0.2-0.2-0.3-0.4-0.5c-0.1-0.2-0.3-0.3-0.4-0.4c-0.2-0.1-0.3-0.3-0.5-0.4c-0.4-0.2-0.8-0.4-1.2-0.6c-0.2-0.1-0.4-0.1-0.6-0.2c-0.2,0-0.4-0.1-0.7-0.1c-0.2,0-0.4,0-0.7,0c-0.2,0-0.4,0.1-0.7,0.1C187.8,155.5,187.7,155.5,187.7,155.6z"/><path d="M244.9,143.2c-4.7-3-12.2-3.7-17.5-3.4c-2.8,0.1-3.1,0.7-4.7-1.2c-1.5-1.8-2-6.3-2.6-8.5c-1.8-5.6-3.5-11.3-5.3-16.9c25-19.1,30.7-54.4,13-80.4c-2.7-3.9-6.8-7.9-11.5-7.2c-3.5,0.5-6.1,3.6-8,6.6c-6,9.6-8.5,21.1-8.5,32.4s2.4,22.5,5.7,33.4c0.4,1,0.5,2.1,0.4,3.2c-0.4,1.1-1.1,2.1-2,2.8c-12.3,11.6-25.7,23.4-31.3,39.5c-3.3,9.6-3.5,20-0.6,29.7c3,9.9,9.5,19.1,18.8,23.7c6.1,3.1,13,4.1,19.7,4.5c8.6,0.5,17.4,0.1,25.5-2.8c1.5,5,2.8,10,3.9,15c0.9,4,1.8,8,2.4,12.1c0.2,1.3,0.2,2.6,0.3,3.9c0,2.7-0.7,5.4-2,7.8c-0.5,1.1-1.2,2.1-1.9,3c-2.3,2.8-5.1,5.1-8.3,6.9c-2.2,1.3-4.7,2.1-7.2,2.5c-1.3,0.2-2.6,0.2-3.9,0.2c-0.1,0-0.2,0-0.3,0c7.5-5,9.6-15.1,4.6-22.6s-15.1-9.6-22.6-4.6s-9.6,15.1-4.6,22.6l0,0h-0.1c0.3,0.4,0.6,0.8,0.9,1.2c0.1,0.1,0.2,0.3,0.3,0.4c9.8,12.6,28.3,10,28.3,10c2.3-0.2,4.6-0.8,6.7-1.6c4.8-1.7,9-4.6,12.2-8.6c1.5-1.9,2.7-4,3.7-6.2c0.8-1.8,1.4-3.7,1.7-5.7c0.2-2.7,0-5.5-0.6-8.1c-1.3-6.2-2.9-12.3-4.8-18.4c-0.4-1.4-0.9-2.9-1.3-4.3c-0.8-2.6-1.6-5.1-2.3-7.7L241,196c0,0,15.1-6.1,17-20C257.9,175.9,262,153.9,244.9,143.2z M207.4,48.8c5.5-9.2,19.6-6.7,21.6,3.8c0,0,3.4,15-8.3,31.4c-1.9,3.1-6,8.1-10.9,13.4l-2.3-7.4c-0.2-0.5-0.4-2-0.5-2.5c-2.3-8.9-3.8-21.9-3.5-27C203.8,56.3,205.1,52.3,207.4,48.8z M195.4,190.7c-7.2-5-12.8-12.6-14.1-21.2c-1.5-9.9,2.8-19.8,8.3-28.2c5.6-8.5,12.5-16.2,20.4-22.6c2.1,6.1,4.1,12.3,6.2,18.4c0.6,1.2,0.7,2.7,0.4,4c-0.5,1.4-1.9,2.3-3.1,3.1c-9,6.2-13.9,17.2-13,28c0.3,4.1,1.4,8.2,3.9,11.5c2.5,3.2,6.7,5.4,10.7,4.5c-1.7,0.4-5.2-6.9-5.8-8.1c-1.4-3.5-2-7.3-1.7-11c0.5-7.7,6.3-14.1,13.9-15.4c4.1,12.6,9,27.6,13,40.8l0.1,0.2C221.8,200,207,198.5,195.4,190.7z M239.4,191.7l-1.7-5.8c0-0.2-0.1-0.3-0.1-0.5l-10.3-32.5c4.5-0.2,17.2,0.7,22,17.1C249.4,170,253.4,182.3,239.4,191.7z"/><path d="M239.4,181.6l1.9-12.6l0,0c0,0,0,0,0-0.1c0-0.3,0.1-0.5,0.3-0.7c0.4-0.6,1-1.1,1.7-1.3c0.7-0.3,1.5-0.3,2.3,0c0.1,0,0.1,0,0.1,0.1c0.1,0,0.1,0.1,0.2,0.1c0.1,0,0.1,0.1,0.2,0.1c0.1,0.1,0.1,0.1,0.2,0.2c0,0,0.1,0.1,0.1,0.2c0,0.1,0.1,0.1,0.1,0.2c0.2,0.9-0.3,1.8-1.1,2.2c-0.1,0-0.2,0.1-0.3,0.2c-0.1,0-0.1,0.1-0.2,0.1c-0.1,0.1-0.3,0.1-0.4,0.2c-0.4,0.1-0.7,0.2-1.1,0.2c-0.1,0-0.2,0-0.3,0H243c-0.1,0-0.2,0-0.2,0c-0.1,0-0.2,0-0.3-0.1l0,0c-0.1,0-0.1,0-0.2-0.1c-0.1,0-0.1-0.1-0.2-0.1l0,0c-0.1,0-0.1-0.1-0.2-0.1l0,0c0,0,0,0-0.1,0l-1.5,9.5l8.6,1.3l1.6-10.5c0.2-0.9,0.9-1.7,1.8-2c0.1,0,0.1-0.1,0.2-0.1c1.4-0.5,2.8-0.1,3.2,0.8c0.3,0.9-0.6,2.1-2,2.6c-0.9,0.3-1.8,0.3-2.7-0.2l-1.8,11.6L239.4,181.6z"/></svg>