<svg xmlns="http://www.w3.org/2000/svg" viewBox="0 0 29.8143 30"><circle cx="27.0466" cy="5.42223" r="2.7677"/><circle cx="27.0466" cy="13.73469" r="2.7677"/><path d="M18.50481,3.918A11.87392,11.87392,0,0,0,12.23366.20436a9.56846,9.56846,0,0,0-1.957-.20262C10.259.00123,10.24161.00015,10.22388,0l-.00406.00029a5.25,5.25,0,0,0-.62157.046L9.58968.04693,9.59.04715c-.04541.0053-.09183.01031-.13658.01518A12.311,12.311,0,0,0,7.60061.40442q-.209.056-.41554.12038-.53842.16813-1.059.38684A10.02817,10.02817,0,0,0,.04128,8.29205,5.0093,5.0093,0,0,0,1.49792,12.484a4.16106,4.16106,0,1,0,3.15962-7.0625,7.821,7.821,0,0,1,2.529-1.69427,9.88723,9.88723,0,0,1,2.3454-.6605c.08427-.01308.17283-.01736.26037-.024,4.50221.00072,7.9918,5.22308,7.50179,9.46819a20.95206,20.95206,0,0,1-.49232,2.68517,21.38075,21.38075,0,0,1-5.37637,10.04044,11.09887,11.09887,0,0,1-3.1868,2.09513,17.55014,17.55014,0,0,0-1.59082.77928c-.69174.41678-1.31781,1.68214-.092,1.87422a1.62869,1.62869,0,0,0,.69981-.06415,13.914,13.914,0,0,0,4.0311-2.03317q.58255-.40165,1.1436-.83369c4.36491-3.35243,7.89728-8.243,8.5-13.82976C21.28958,9.89551,20.835,6.507,18.50481,3.918Z"/></svg>