<svg xmlns="http://www.w3.org/2000/svg" viewBox="0 0 6.31736 20"><path d="M4.39705,9.12553A4.00364,4.00364,0,0,0,.98236,10.32445L.97823.17366A.16023.16023,0,0,0,.83638,0H.15075A.1605.1605,0,0,0,.00892.17506L.00471,19.523a.461.461,0,0,0-.00027.11954l-.0005.13209q-.00013.05946,0,.119c.00011.02435.00255.04854.00443.07281.00166.02138-.00212.031.01915.03294.0874.00812.17516-.06665.24832-.10541.16782-.08888.34215-.16464.51015-.25312a9.05375,9.05375,0,0,0,1.00645-.64763c.19531-.13861.37921-.2906.57052-.43408.12013-.09911.24106-.19748.35931-.299q.42262-.36291.81241-.762.35621-.36568.67965-.7615.29517-.362.55875-.74836.23956-.35182.44961-.72254.18948-.33492.35231-.684.145-.31138.2668-.63282.10626-.281.19311-.56889.07338-.24394.1312-.49228.04643-.20022.08113-.403c.017-.09994.03155-.20027.04286-.301.007-.06192.01293-.124.01642-.18629.001-.01834.00075-.0369.002-.05522A2.49658,2.49658,0,0,0,4.39705,9.12553Zm.80131,2.77691c0,.03781-.06435,3.6274-4.2134,6.47937l-.002-6.31717A3.40841,3.40841,0,0,1,4.2,10.22,1.4444,1.4444,0,0,1,5.19836,11.90244Z"/></svg>